<svg xmlns="http://www.w3.org/2000/svg" viewBox="0 0 400 400"><defs><style>.cls-1,.cls-2,.cls-4{fill:none;}.cls-1,.cls-2{stroke:#414042;}.cls-1,.cls-2,.cls-3,.cls-4{stroke-linecap:round;stroke-linejoin:round;}.cls-1,.cls-4{stroke-width:3px;}.cls-2{stroke-width:5px;}.cls-3{fill:#fff;stroke-width:4.68px;}.cls-3,.cls-4{stroke:#43b683;}</style></defs><g id="ikony_duze" data-name="ikony duze"><rect class="cls-1" x="92.82" y="108.35" width="110.48" height="38.69" rx="7.03"/><rect class="cls-2" x="71.19" y="74.77" width="153.73" height="256.88" rx="19.67"/><circle class="cls-1" cx="106.81" cy="180.93" r="10.07"/><circle class="cls-1" cx="148.06" cy="180.93" r="10.07"/><circle class="cls-1" cx="189.31" cy="180.93" r="10.07"/><circle class="cls-1" cx="148.06" cy="241.82" r="24.21"/><rect class="cls-1" x="144.64" y="224.31" width="8.42" height="35.02" transform="translate(-127.4 176.08) rotate(-45)"/><circle class="cls-1" cx="114.12" cy="241.82" r="3.45"/><circle class="cls-1" cx="98.32" cy="309.75" r="5.51"/><circle class="cls-1" cx="131.48" cy="309.75" r="5.51"/><circle class="cls-1" cx="164.63" cy="309.75" r="5.51"/><circle class="cls-1" cx="197.79" cy="309.75" r="5.51"/><circle class="cls-1" cx="181.71" cy="241.82" r="3.45"/><circle class="cls-1" cx="171.81" cy="217.93" r="3.45"/><circle class="cls-1" cx="147.91" cy="208.03" r="3.45"/><circle class="cls-1" cx="124.01" cy="217.93" r="3.45"/><path class="cls-2" d="M164.63,309.75v42.31a24.06,24.06,0,0,0,24.06,24.06H301.25a24.06,24.06,0,0,0,24.06-24.06V222.81"/><path class="cls-2" d="M197.79,309.75v26.41A16.17,16.17,0,0,0,214,352.34h63.75a16.17,16.17,0,0,0,16.18-16.18V222.81"/><path class="cls-2" d="M287.26,192h13.28a0,0,0,0,1,0,0v24.22a6.64,6.64,0,0,1-6.64,6.64h0a6.64,6.64,0,0,1-6.64-6.64V192A0,0,0,0,1,287.26,192Z"/><path class="cls-2" d="M318.67,192h13.28a0,0,0,0,1,0,0v24.22a6.64,6.64,0,0,1-6.64,6.64h0a6.64,6.64,0,0,1-6.64-6.64V192A0,0,0,0,1,318.67,192Z"/><line class="cls-2" x1="293.9" y1="191.95" x2="293.9" y2="174.42"/><line class="cls-2" x1="325.31" y1="191.95" x2="325.31" y2="174.42"/><circle class="cls-3" cx="309.09" cy="113.4" r="42.13"/><polygon class="cls-4" points="298.05 145.42 309.17 113.88 292.36 113.88 304.87 86.19 321.13 86.19 306.8 106.26 323.15 106.26 298.05 145.42"/><line class="cls-1" x1="58.51" y1="301.92" x2="58.51" y2="215.79"/><path class="cls-1" d="M83.86,344.09a31,31,0,0,1-19.57-12.43"/><line class="cls-1" x1="110.67" y1="344.59" x2="96.74" y2="344.59"/><path class="cls-1" d="M237.6,92.79v47.43"/><path class="cls-1" d="M219.14,64.46a31.05,31.05,0,0,1,14.35,12.9"/><path class="cls-1" d="M174.14,61.84h32.51a32.48,32.48,0,0,1,3.58.2"/><line class="cls-1" x1="337.18" y1="261.2" x2="337.18" y2="311.81"/><line class="cls-1" x1="337.18" y1="321.33" x2="337.18" y2="331.66"/></g></svg>