<svg xmlns="http://www.w3.org/2000/svg" viewBox="0 0 400 400"><defs><style>.cls-1,.cls-2,.cls-3,.cls-4{fill:none;stroke-linecap:round;stroke-linejoin:round;}.cls-1,.cls-2{stroke:#414042;}.cls-1,.cls-3{stroke-width:5px;}.cls-2,.cls-4{stroke-width:3px;}.cls-3,.cls-4{stroke:#43b683;}</style></defs><g id="ikony_duze" data-name="ikony duze"><circle class="cls-1" cx="174.2" cy="179.54" r="144.97"/><polyline class="cls-1" points="286.8 270.86 370.77 354.83 349.48 376.12 265.51 292.14"/><path class="cls-2" d="M117.41,324.51A156.33,156.33,0,0,1,39.5,257.63"/><path class="cls-2" d="M156.15,334.15a156.16,156.16,0,0,1-25-5"/><path class="cls-2" d="M177.33,335.16q-5.75.12-11.47-.19"/><path class="cls-2" d="M237.32,37.21a156.48,156.48,0,0,1,71.42,64"/><path class="cls-2" d="M191.45,24.84a155.2,155.2,0,0,1,22.75,4.24"/><path class="cls-2" d="M169.62,24q3.85-.12,7.71,0"/><line class="cls-2" x1="306.46" y1="345.82" x2="319.51" y2="358.86"/><line class="cls-2" x1="279.05" y1="318.4" x2="301.34" y2="340.7"/><circle class="cls-2" cx="174.2" cy="179.54" r="132.27"/><ellipse class="cls-2" cx="145.5" cy="74.77" rx="33.35" ry="7.85" transform="translate(-15.94 48.35) rotate(-17.9)"/><ellipse class="cls-2" cx="97.36" cy="98.63" rx="9.35" ry="3.93" transform="translate(-40.25 82.19) rotate(-38.56)"/><rect class="cls-3" x="106.03" y="129.85" width="136.34" height="115.05" rx="15.32"/><line class="cls-4" x1="106.03" y1="211.73" x2="242.37" y2="211.73"/><rect class="cls-4" x="135.13" y="157.92" width="78.13" height="29.45"/><rect class="cls-3" x="130.21" y="244.9" width="16.3" height="16.3"/><rect class="cls-3" x="201.88" y="244.9" width="16.3" height="16.3"/><line class="cls-3" x1="138.36" y1="261.2" x2="138.36" y2="283.71"/><line class="cls-3" x1="210.03" y1="261.2" x2="210.03" y2="283.71"/><line class="cls-4" x1="156.15" y1="120.81" x2="214.2" y2="120.81"/><path class="cls-4" d="M109.9,123.07a24.85,24.85,0,0,1,10.39-2.26h14.84"/><path class="cls-4" d="M97.18,136.32a25,25,0,0,1,5.08-7.81"/><line class="cls-4" x1="253.07" y1="185.54" x2="253.07" y2="213.08"/><line class="cls-4" x1="253.07" y1="166.26" x2="253.07" y2="175.45"/></g></svg>