<svg xmlns="http://www.w3.org/2000/svg" viewBox="0 0 400 400"><defs><style>.cls-1,.cls-2,.cls-3,.cls-4{fill:none;stroke-linecap:round;stroke-linejoin:round;}.cls-1,.cls-4{stroke:#43b683;}.cls-1,.cls-2{stroke-width:5px;}.cls-2,.cls-3{stroke:#43b683;}.cls-3,.cls-4{stroke-width:3px;}</style></defs><g id="ikony_duze" data-name="ikony duze"><path class="cls-1" d="M87.36,85.57s-2.9,39.71-15.65,58-32.47,38.84-23.19,65.51S87.36,247.6,87.36,247.6s-14.07-22.19-14-38.91A64.77,64.77,0,0,1,84.17,174a34.78,34.78,0,0,1,9.64,14c4,10,4.28,15.61,4.28,15.61s9.85-19.71,9.27-34.78-1.16-29.28-1.16-29.28,31.6,26.23,34.21,61.74c1.91,26.09-23.19,46.38-23.19,46.38s40.8-6.23,46.59-43S122.73,113.68,87.36,85.57Z"/><path class="cls-2" d="M105.21,264.84v39.45a34.85,34.85,0,0,0,34.85,34.85H278.5a34.85,34.85,0,0,0,34.85-34.85V264.84"/><rect class="cls-2" x="276.84" y="231.91" width="73.02" height="15.69"/><path class="cls-2" d="M313.35,176.29h0a27.57,27.57,0,0,1,27.57,27.57v28a0,0,0,0,1,0,0H285.77a0,0,0,0,1,0,0v-28a27.57,27.57,0,0,1,27.57-27.57Z"/><path class="cls-3" d="M293.36,206.87v7.8"/><path class="cls-3" d="M304.68,186.14A24.63,24.63,0,0,0,294,201.46"/><line class="cls-4" x1="272.2" y1="203.69" x2="253.84" y2="203.69"/><line class="cls-4" x1="374.9" y1="203.69" x2="356.54" y2="203.69"/><line class="cls-4" x1="370.16" y1="147.9" x2="344.19" y2="173.87"/><line class="cls-4" x1="314.37" y1="143.16" x2="314.37" y2="161.52"/><line class="cls-4" x1="258.58" y1="147.9" x2="284.55" y2="173.87"/><path class="cls-4" d="M78.09,94c-2.66,13.77-7.12,30.51-14.35,42.41"/><path class="cls-4" d="M104.59,88c-4.45-3.9-8.89-7.6-13.25-11.07"/><path class="cls-4" d="M155.82,136.41q-3.56-5.08-7.46-10.11"/><path class="cls-4" d="M174.19,169.43a141.29,141.29,0,0,0-9.82-19.78"/><path class="cls-4" d="M158.22,239.76c9.89-7.92,18.43-19.23,21.15-35.26a47.5,47.5,0,0,0,.63-9.14"/><path class="cls-4" d="M53.82,149.69c-5,6.3-10.21,12.85-14.7,19.74"/></g></svg>