<svg xmlns="http://www.w3.org/2000/svg" viewBox="0 0 13.44 10.3"><defs><style>.cls-1{fill:#fff;stroke:#bbbdbf;stroke-miterlimit:10;stroke-width:0.3px;}.cls-2{fill:#557ebf;}.cls-3{fill:#36a852;}.cls-4{fill:#f9bc15;}.cls-5{fill:#ea4535;}</style></defs><g id="Layer_2" data-name="Layer 2"><g id="Layer_1-2" data-name="Layer 1"><path class="cls-1" d="M11.18,1.54V3.22l2,3.1h-2V8.76a1.39,1.39,0,0,1-1.39,1.39H1.54A1.39,1.39,0,0,1,.15,8.76V1.54A1.39,1.39,0,0,1,1.54.15H9.79A1.39,1.39,0,0,1,11.18,1.54Z"/><path class="cls-2" d="M9,5.23a3.71,3.71,0,0,0-.06-.67H5.79V5.83H7.57a1.57,1.57,0,0,1-.66,1v.82H8A3.22,3.22,0,0,0,9,5.23Z"/><path class="cls-3" d="M5.79,8.45A3.14,3.14,0,0,0,8,7.65L6.91,6.83a2,2,0,0,1-1.12.31A2,2,0,0,1,3.94,5.78H2.84v.85A3.29,3.29,0,0,0,5.79,8.45Z"/><path class="cls-4" d="M3.93,5.78a2.08,2.08,0,0,1,0-1.26V3.67H2.84a3.28,3.28,0,0,0,0,3Z"/><path class="cls-5" d="M5.79,3.16a1.78,1.78,0,0,1,1.26.49L8,2.71a3.15,3.15,0,0,0-2.2-.85A3.3,3.3,0,0,0,2.84,3.67l1.09.85A2,2,0,0,1,5.79,3.16Z"/></g></g></svg>