<svg xmlns="http://www.w3.org/2000/svg" viewBox="0 0 10.38 7.95" ><defs><style>.cls-1{fill:#fff;stroke:#bbbdbf;stroke-miterlimit:10;stroke-width:0.3px;}.cls-2{fill:#4285f4;}.cls-3{fill:#34a853;}.cls-4{fill:#fbbc04;}.cls-5{fill:#ea4335;}</style></defs><g id="Layer_2" data-name="Layer 2"><g id="Layer_1-2" data-name="Layer 1"><g id="_1_1" data-name="1_1"><path class="cls-1" d="M1.79,1.21V2.5L.27,4.87H1.79V6.73A1.07,1.07,0,0,0,2.86,7.8h6.3a1.07,1.07,0,0,0,1.07-1.07V1.21A1.07,1.07,0,0,0,9.16.15H2.86A1.07,1.07,0,0,0,1.79,1.21Z"/><path class="cls-2" d="M8.19,4a2.49,2.49,0,0,0,0-.47H6v.88H7.23a1,1,0,0,1-.45.69V5.7h.73A2.21,2.21,0,0,0,8.19,4Z"/><path class="cls-3" d="M6,6.25A2.17,2.17,0,0,0,7.51,5.7l-.73-.57a1.38,1.38,0,0,1-2.06-.72H4V5A2.26,2.26,0,0,0,6,6.25Z"/><path class="cls-4" d="M4.72,4.41a1.44,1.44,0,0,1,0-.87V3H4A2.25,2.25,0,0,0,4,5Z"/><path class="cls-5" d="M6,2.6a1.21,1.21,0,0,1,.88.34l.65-.65A2.23,2.23,0,0,0,6,1.69,2.27,2.27,0,0,0,4,3l.75.59A1.37,1.37,0,0,1,6,2.6Z"/></g></g></g></svg>