<svg xmlns="http://www.w3.org/2000/svg" viewBox="0 0 10.66 9.2"><defs><style>.cls-1{fill:#fff;}.cls-2{fill:#bbbdbf;}.cls-3{fill:#557ebf;}.cls-4{fill:#36a852;}.cls-5{fill:#f9bc15;}.cls-6{fill:#ea4535;}</style></defs><g id="Layer_2" data-name="Layer 2"><g id="Layer_1-2" data-name="Layer 1"><path class="cls-1" d="M1.25,9.1A1.17,1.17,0,0,1,.1,7.92V1.28A1.17,1.17,0,0,1,1.25.1H7.76c.2.1.42,1.85.42,4.5S8,9,7.76,9.1Z"/><path class="cls-2" d="M7.71.2c.49.7.49,8.1,0,8.8H1.25a1.06,1.06,0,0,1-1-1.08V1.28A1.06,1.06,0,0,1,1.25.2H7.71m0-.2H1.25A1.26,1.26,0,0,0,0,1.28V7.92A1.26,1.26,0,0,0,1.25,9.2H7.76c.69,0,.69-9.2,0-9.2Z"/><path class="cls-3" d="M7.24,4.76a3.31,3.31,0,0,0,0-.55H4.66v1H6.11a1.22,1.22,0,0,1-.54.82v.67h.87a2.62,2.62,0,0,0,.8-2Z"/><path class="cls-4" d="M4.66,7.38a2.59,2.59,0,0,0,1.78-.65l-.87-.67a1.62,1.62,0,0,1-2.42-.85H2.26V5.9A2.68,2.68,0,0,0,4.66,7.38Z"/><path class="cls-5" d="M3.15,5.21a1.65,1.65,0,0,1,0-1V3.49H2.26a2.69,2.69,0,0,0,0,2.41Z"/><path class="cls-6" d="M4.66,3.07a1.51,1.51,0,0,1,1,.4l.77-.76A2.56,2.56,0,0,0,4.66,2a2.68,2.68,0,0,0-2.4,1.48l.89.69A1.6,1.6,0,0,1,4.66,3.07Z"/><path class="cls-1" d="M8.91,2.91V1.43A1.22,1.22,0,0,0,7.69.21V9A1.22,1.22,0,0,0,8.91,7.77V5.63h1.75Z"/></g></g></svg>