<?xml version="1.0" encoding="UTF-8"?> <svg xmlns="http://www.w3.org/2000/svg" width="48" height="48" viewBox="0 0 48 48" fill="none"><path d="M24.0386 48.0002C22.9991 48.0002 22.0981 47.5108 20.92 46.3224C19.3261 44.7145 17.6629 44.295 15.3759 44.9242C12.6732 45.6932 11.2178 44.8543 10.2476 42.1278C10.0397 41.6385 9.9011 41.219 9.8318 40.7996C9.48529 39.4713 8.65367 38.6324 7.19834 38.1431C2.90165 36.7449 2.41654 35.8361 3.31746 31.4319C3.59467 30.1036 3.38676 29.055 2.48584 28.0763C-0.771323 24.3012 -0.771323 23.7419 2.48584 19.9669C3.31746 18.9882 3.59467 18.0094 3.24816 16.6113C2.34724 12.207 2.90165 11.2982 7.05974 9.90006C8.58437 9.4107 9.48529 8.5718 9.8318 7.17363C9.9011 7.03381 9.9011 6.894 9.9704 6.68427L10.0397 6.61436C11.2871 2.97912 12.3266 2.41986 15.9303 3.25876C17.8708 3.67821 19.2568 3.32867 20.7121 1.9305C23.3456 -0.586207 24.8009 -0.586207 27.4344 1.9305C28.8897 3.32867 30.345 3.74812 32.1469 3.18885C32.7013 3.04903 33.1864 2.97912 33.6715 2.90921H33.8794C35.5426 2.69949 36.7901 3.46848 37.4138 5.00647C37.691 5.70555 38.0375 6.61436 38.384 7.59308C38.7305 8.64171 39.3542 9.27088 40.3937 9.62043C41.2946 9.90006 42.1956 10.2496 42.9579 10.5991C44.4825 11.2283 45.2448 12.4168 45.1755 14.0946V14.1645C45.1755 14.3742 45.1062 14.5839 45.1062 14.7937C45.0369 15.283 44.9676 15.7724 44.829 16.2617C44.3439 17.7298 44.6904 18.9882 45.8685 20.3164C48.7099 23.4623 48.7099 24.5109 45.8685 27.6568C44.6904 28.9851 44.3439 30.1735 44.829 31.7115C44.8983 32.061 44.9676 32.3407 45.0369 32.6203L45.1062 32.8999C45.522 35.2768 44.7597 36.675 42.5421 37.5838C42.4035 37.6537 42.3342 37.7236 42.1263 37.7236C39.8393 38.1431 38.4533 39.4713 37.8296 41.988C37.4831 43.3862 36.9287 44.2251 36.097 44.7145C35.2654 45.2038 34.2259 45.2737 32.632 44.8543C30.345 44.2251 28.7511 44.6446 27.1572 46.3224C25.979 47.4409 25.0088 48.0002 24.0386 48.0002ZM17.247 42.8269C19.1182 42.8269 20.7121 43.526 22.1674 45.064C22.9298 45.833 23.5535 46.1825 24.0386 46.1825C24.5237 46.1825 25.0781 45.833 25.8404 45.064C27.9195 42.9668 30.2064 42.3376 33.0478 43.1765C34.0873 43.4561 34.711 43.4561 35.1268 43.2464C35.4733 43.0367 35.7505 42.4774 36.0277 41.6385C36.8594 38.4926 38.7305 36.675 41.7105 36.1157L41.7798 36.0458C43.3044 35.4865 43.5816 34.9273 43.3044 33.3893L43.2351 33.1097C43.1658 32.83 43.1658 32.6203 43.0965 32.4106C42.4728 30.3133 42.8886 28.4258 44.4825 26.6781C46.7695 24.1614 46.7695 24.1614 44.4825 21.7146C42.8886 19.9669 42.4035 18.0793 43.0272 15.9821C43.1658 15.6326 43.1658 15.2131 43.2351 14.7237C43.2351 14.514 43.3044 14.3043 43.3044 14.0946C43.3737 13.2557 43.0272 12.7663 42.1956 12.4168C41.5025 12.1371 40.6016 11.7876 39.77 11.508C38.1761 11.0186 37.1366 9.96997 36.6514 8.36207C36.3742 7.45326 36.0277 6.61436 35.7505 5.91528C35.404 5.00647 34.9189 4.65693 34.0873 4.72683H33.8101C33.3943 4.79674 32.9785 4.79674 32.5627 4.93656C30.2064 5.63564 28.0581 5.07638 26.1176 3.25876C24.1772 1.37123 23.7614 1.37123 21.8209 3.25876C20.0191 5.00647 18.0094 5.56574 15.5145 5.00647C12.7425 4.37729 12.6039 4.4472 11.7029 7.24354L11.6336 7.38336C11.6336 7.45326 11.5643 7.59308 11.5643 7.66299C11.0792 9.62043 9.76249 10.9487 7.68345 11.6478C4.28768 12.6964 4.28768 12.6964 5.05 16.1918C5.46581 18.1493 5.1193 19.6872 3.87187 21.0854C2.69375 22.4137 1.86213 23.4623 1.86213 24.0216C1.86213 24.5808 2.69375 25.5595 3.87187 26.8878C5.1193 28.286 5.46581 29.8939 5.1193 31.7814C4.28768 35.3467 4.28768 35.3467 7.68345 36.4653C9.76249 37.1644 11.0099 38.4227 11.495 40.3801C11.5643 40.7297 11.7029 41.0792 11.8415 41.4987C12.5346 43.3862 13.0197 43.6658 14.8908 43.1765C15.7224 42.9668 16.4847 42.8269 17.247 42.8269ZM20.9893 32.6902L13.4355 25.2799L17.8708 20.9456L21.0586 24.3711L30.4143 15.0733L34.6417 19.4076L20.9893 32.6902ZM15.9303 25.2799L20.9893 30.2434L32.0776 19.4076L30.4143 17.59L20.9893 26.9577L17.8015 23.4623L15.9303 25.2799Z" fill="#146849"></path></svg> 