<?xml version="1.0" encoding="UTF-8"?> <svg xmlns="http://www.w3.org/2000/svg" width="48" height="42" viewBox="0 0 48 42" fill="none"><path d="M15.4375 19.9H6.5375C6.0375 19.9 5.63749 19.7 5.33749 19.3C5.03749 18.9 4.9375 18.4 5.0375 18L8.9375 1.5C9.1375 0.6 9.93749 0 10.8375 0H19.7375C20.2375 0 20.6375 0.200006 20.9375 0.600006C21.2375 1.00001 21.3375 1.49999 21.2375 1.89999L17.3375 18.4C17.1375 19.2 16.3375 19.8 15.4375 19.9ZM10.8375 1.39999C10.6375 1.39999 10.4375 1.60002 10.3375 1.80002L6.4375 18.3L15.4375 18.4C15.6375 18.4 15.8375 18.2 15.9375 18L19.8375 1.5L10.8375 1.39999Z" fill="#146849"></path><path d="M28.8379 19.9H19.9379C19.4379 19.9 19.0379 19.7 18.7379 19.3C18.4379 18.9 18.3379 18.4 18.4379 18L22.3379 1.5C22.5379 0.6 23.3379 0 24.2379 0H33.1379C33.6379 0 34.0379 0.200006 34.3379 0.600006C34.6379 1.00001 34.7379 1.49999 34.6379 1.89999L30.7379 18.4C30.5379 19.2 29.7379 19.8 28.8379 19.9ZM24.2379 1.39999C24.0379 1.39999 23.8379 1.60002 23.7379 1.80002L19.8379 18.3L28.8379 18.4C29.0379 18.4 29.2379 18.2 29.3379 18L33.1379 1.5L24.2379 1.39999Z" fill="#146849"></path><path d="M42.2364 19.9H33.3363C32.8363 19.9 32.4363 19.7 32.1363 19.3C31.8363 18.9 31.7363 18.4 31.8363 18L35.6363 1.5C35.8363 0.6 36.6363 0 37.5363 0H46.4363C47.2363 0 47.9363 0.599994 47.9363 1.39999C47.9363 1.49999 47.9363 1.70002 47.8363 1.80002L44.0363 18.3C43.9363 19.2 43.1363 19.8 42.2364 19.9ZM37.6363 1.39999C37.4363 1.39999 37.2363 1.60002 37.1363 1.80002L33.2363 18.3L42.2364 18.4C42.4363 18.4 42.6363 18.2 42.7364 18L46.6363 1.5L37.6363 1.39999Z" fill="#146849"></path><path d="M10.4375 41.2999H1.5375C1.0375 41.2999 0.63749 41.0999 0.33749 40.6999C0.0374897 40.2999 -0.0624981 39.7999 0.0375019 39.3999L3.9375 22.8999C4.1375 21.9999 4.93749 21.3999 5.83749 21.3999H14.7375C15.2375 21.3999 15.6375 21.5999 15.9375 21.9999C16.2375 22.3999 16.3375 22.8999 16.2375 23.2999L12.3375 39.7999C12.1375 40.5999 11.3375 41.1999 10.4375 41.2999ZM5.83749 22.7999C5.63749 22.7999 5.43749 22.9999 5.33749 23.1999L1.4375 39.6999L10.4375 39.7999C10.6375 39.7999 10.8375 39.5999 10.9375 39.3999L14.8375 22.8999L5.83749 22.7999Z" fill="#146849"></path><path d="M23.8375 41.2999H14.9375C14.1375 41.2999 13.4375 40.6999 13.4375 39.7999C13.4375 39.6999 13.4375 39.4999 13.5375 39.3999L17.3375 22.8999C17.5375 21.9999 18.3375 21.3999 19.2375 21.3999H28.1375C28.6375 21.3999 29.0375 21.5999 29.3375 21.9999C29.6375 22.3999 29.7375 22.8999 29.6375 23.2999L25.7375 39.7999C25.5375 40.5999 24.7375 41.1999 23.8375 41.2999ZM19.2375 22.7999C19.0375 22.7999 18.8375 22.9999 18.7375 23.1999L14.8375 39.6999L23.8375 39.7999C24.0375 39.7999 24.2375 39.5999 24.3375 39.3999L28.2375 22.8999L19.2375 22.7999Z" fill="#146849"></path><path d="M37.2364 41.2999H28.3363C27.8363 41.2999 27.4363 41.0999 27.1363 40.6999C26.8363 40.2999 26.7363 39.7999 26.8363 39.3999L30.7363 22.8999C30.9363 21.9999 31.7363 21.3999 32.6363 21.3999H41.5363C42.0363 21.3999 42.4363 21.5999 42.7364 21.9999C43.0364 22.3999 43.1363 22.8999 43.0363 23.2999L39.1363 39.7999C38.9363 40.5999 38.1363 41.1999 37.2364 41.2999ZM32.6363 22.7999C32.4363 22.7999 32.2363 22.9999 32.1363 23.1999L28.2363 39.6999L37.2364 39.7999C37.4363 39.7999 37.6363 39.5999 37.7364 39.3999L41.5363 22.8999L32.6363 22.7999Z" fill="#146849"></path></svg> 