<svg width="38" height="39" viewBox="0 0 38 39" fill="none" xmlns="http://www.w3.org/2000/svg">
<path d="M12.0524 13.35C10.6274 13.35 9.20243 12.9344 8.13368 12.2813L8.72743 11.2719C10.5087 12.2813 13.2399 12.6375 15.0212 11.2125C15.9712 10.5 16.5056 9.49066 17.0993 8.42191C17.2774 8.06566 17.5149 7.70941 17.6931 7.35316C18.7024 5.69066 19.7712 4.50316 21.0181 3.79066C17.9899 2.66254 14.3681 1.71254 10.8056 2.48441C8.25243 3.07816 5.34305 4.80004 5.99618 9.84691L4.80868 9.96566C4.21493 5.39379 6.35243 2.24691 10.5087 1.29691C15.0212 0.287539 19.5337 1.83129 22.9181 3.25629C23.1556 3.37504 23.2743 3.67191 23.2149 3.96879C23.1556 4.26566 22.9181 4.44379 22.6212 4.44379C22.3837 4.44379 22.0868 4.50316 21.7899 4.68129C20.6618 5.33441 19.5931 6.40316 18.6431 8.00629C18.4649 8.36254 18.2274 8.71879 18.0493 9.01566C17.4556 10.1438 16.8024 11.3313 15.6743 12.1625C14.6649 12.9938 13.3587 13.35 12.0524 13.35Z" fill="#146849"/>
<path d="M18.4062 39.0001C8.60938 39.0001 0.59375 30.9845 0.59375 21.1876C0.59375 13.7657 5.28438 7.05635 12.2906 4.44385L12.7062 5.57197C6.175 7.94697 1.78125 14.2407 1.78125 21.1876C1.78125 30.3313 9.2625 37.8126 18.4062 37.8126C27.55 37.8126 35.0312 30.3313 35.0312 21.1876C35.0312 18.8126 34.5563 16.497 33.5469 14.3001L34.6156 13.8251C35.6844 16.1407 36.2188 18.6345 36.2188 21.1876C36.2188 30.9845 28.2031 39.0001 18.4062 39.0001Z" fill="#146849"/>
<path d="M14.8435 30.2125C13.7154 22.85 5.75916 19.4063 5.69979 19.3469C5.46229 19.2281 5.28416 18.9906 5.34354 18.7531C5.40291 18.5156 5.58104 18.2781 5.81854 18.2188C6.05604 18.1594 11.0435 17.3875 14.5467 19.4656L13.9529 20.475C12.1123 19.3469 9.67791 19.1688 8.01541 19.2281C10.6279 20.7719 15.1404 24.275 16.031 29.975L14.8435 30.2125Z" fill="#146849"/>
<path d="M20.7812 33.6563C20.6624 33.6563 20.6031 33.6563 20.4843 33.597L15.1406 30.6282C14.9624 30.5688 14.9031 30.3907 14.8437 30.2126C14.7249 29.7376 12.8249 18.6938 36.4562 1.11883C36.6937 0.940704 37.0499 1.00008 37.2874 1.23758C37.4655 1.47508 37.4656 1.83133 37.2281 2.06883C22.0874 15.8438 21.3749 32.8845 21.3749 33.0626C21.3749 33.2407 21.2562 33.4782 21.0781 33.5376C20.9593 33.6563 20.8999 33.6563 20.7812 33.6563ZM15.9718 29.7376L20.2468 32.1126C20.5437 28.847 22.2656 17.922 30.7562 7.17508C16.1499 19.8813 15.9124 28.1938 15.9718 29.7376Z" fill="#146849"/>
</svg>
