<?xml version="1.0" encoding="UTF-8"?> <svg xmlns="http://www.w3.org/2000/svg" width="49" height="33" viewBox="0 0 49 33" fill="none"><path d="M46 0H2.10001C1.60001 0 1.00001 0.199998 0.700012 0.599998C0.600012 0.699998 0.5 0.899997 0.5 1.2C0.5 1.4 0.600018 1.6 0.800018 1.7L21 17.4L1.5 30.5V5.1H0V30.4C0 31.5 0.900006 32.5 2.10001 32.5H46.1C47.2 32.5 48.2 31.6 48.2 30.4V2C48.1 0.9 47.2 0 46 0C46.1 0 46 0 46 0ZM46.6 2.2V30.4L27.2 17.3L46.6 2.2ZM45.2 1.39999L24.1 17.9L2.89999 1.39999H45.2ZM23.6 19.4C23.9 19.6 24.2 19.6 24.5 19.4L26 18.2L45 31H3.10001L22.1 18.2L23.6 19.4Z" fill="#146849"></path></svg> 