<svg width="34" height="24" viewBox="0 0 34 24" fill="none" xmlns="http://www.w3.org/2000/svg">
<path d="M29.2674 9.37415C29.2121 9.19947 29.0588 9.08093 28.8747 9.08093H9.34629C9.16837 9.08093 9.00885 9.19947 8.95364 9.37415L4.72033 23.1742C4.68352 23.299 4.70193 23.4362 4.78169 23.5423C4.86144 23.6483 4.97801 23.7107 5.11299 23.7107H33.108C33.108 23.7107 33.108 23.7107 33.1141 23.7107C33.3411 23.7107 33.5252 23.5236 33.5252 23.2927C33.5252 23.2303 33.5129 23.1679 33.4884 23.1118L29.2674 9.37415ZM15.457 14.3589C15.23 14.3464 15.0398 14.5149 15.0214 14.7457L14.8557 17.3285H7.37075L8.45668 13.7912H22.3223L22.4818 16.1993C22.4941 16.4177 22.6781 16.5861 22.8867 16.5861C22.8929 16.5861 22.9051 16.5861 22.9113 16.5861C23.1383 16.5736 23.3101 16.374 23.2916 16.1432L23.1383 13.7912H29.7643L30.8502 17.3285H15.6717L15.8374 14.8018C15.8496 14.5772 15.6778 14.3776 15.457 14.3589ZM29.5128 12.9614H23.0892L22.8929 9.91068H28.5802L29.5128 12.9614ZM9.64692 9.91068H15.3343L15.1993 12.0256C15.187 12.2564 15.3527 12.4498 15.5797 12.4686C15.5858 12.4686 15.5981 12.4686 15.6042 12.4686C15.8189 12.4686 15.9969 12.3001 16.0091 12.0818L16.1502 9.91068H22.0646L22.2609 12.9614H8.70209L9.64692 9.91068ZM7.1192 18.1583H14.8005L14.4937 22.8747H5.67129L7.1192 18.1583ZM23.7334 22.8747L23.5064 19.3873C23.4941 19.1565 23.2978 18.988 23.0708 19.0005C22.8438 19.013 22.672 19.2126 22.6904 19.4434L22.9113 22.881H15.3036L15.6104 18.1645H31.1018L32.5497 22.881H23.7334V22.8747Z" fill="#146849"/>
<path d="M3.84898 7.98293C3.62811 9.82959 4.51158 11.6326 6.09447 12.5684C6.16195 12.6058 6.22944 12.6245 6.29693 12.6245C6.43804 12.6245 6.57301 12.5497 6.65277 12.4187C6.76934 12.219 6.70185 11.9632 6.50553 11.8509C5.20486 11.0836 4.4809 9.605 4.65883 8.08275C4.91037 5.98654 6.78775 4.48925 8.84918 4.7388C10.3891 4.92596 11.6407 6.03645 12.0395 7.5587C12.0947 7.78329 12.3217 7.9143 12.5364 7.85192C12.7573 7.79577 12.8862 7.56494 12.8248 7.34658C12.3401 5.48744 10.8186 4.13988 8.94121 3.90905C6.43804 3.60959 4.1496 5.43129 3.84898 7.98293Z" fill="#146849"/>
<path d="M9.40796 0.00372704C9.18096 -0.0274671 8.9785 0.140981 8.95395 0.365579L8.70855 2.45559C8.68401 2.68642 8.84352 2.89231 9.06439 2.91726C9.08279 2.91726 9.09506 2.91726 9.11347 2.91726C9.31593 2.91726 9.49385 2.76129 9.51839 2.54917L9.7638 0.459162C9.79448 0.234564 9.63496 0.0286824 9.40796 0.00372704Z" fill="#146849"/>
<path d="M6.05228 3.36626C6.1075 3.36626 6.16272 3.35378 6.2118 3.33507C6.4204 3.24772 6.51856 2.99818 6.42653 2.7923L5.61055 0.858298C5.52465 0.646182 5.27924 0.546362 5.07065 0.639943C4.86205 0.727285 4.76388 0.976833 4.85591 1.18271L5.6719 3.11671C5.73939 3.27268 5.89277 3.36626 6.05228 3.36626Z" fill="#146849"/>
<path d="M1.62838 3.37883C1.4934 3.55975 1.53022 3.82178 1.70814 3.95903L3.36464 5.22549C3.43827 5.28164 3.52416 5.30659 3.61005 5.30659C3.73276 5.30659 3.85546 5.25044 3.93522 5.13815C4.07019 4.95722 4.03338 4.6952 3.85546 4.55795L2.20509 3.29772C2.02103 3.16047 1.76335 3.1979 1.62838 3.37883Z" fill="#146849"/>
<path d="M2.46271 8.22625C2.66518 8.22625 2.8431 8.07028 2.86764 7.85816C2.89218 7.62733 2.73266 7.42145 2.5118 7.39649L0.456498 7.14694C0.23563 7.12199 0.0270326 7.2842 0.00249171 7.50879C-0.0220492 7.73962 0.137466 7.9455 0.358334 7.97046L2.41363 8.22001C2.4259 8.22625 2.44431 8.22625 2.46271 8.22625Z" fill="#146849"/>
<path d="M3.27223 10.7655C3.18634 10.5534 2.94093 10.4536 2.73233 10.5472L0.83041 11.3769C0.621813 11.4643 0.523649 11.7138 0.615677 11.9259C0.683165 12.0819 0.83041 12.1755 0.989926 12.1755C1.04514 12.1755 1.10036 12.163 1.14944 12.1443L3.05136 11.3145C3.26609 11.2209 3.36426 10.9776 3.27223 10.7655Z" fill="#146849"/>
<path d="M13.8923 6.56672C13.9475 6.56672 14.0027 6.55425 14.0518 6.53553L15.9537 5.70577C16.1623 5.61842 16.2605 5.36887 16.1684 5.16299C16.0825 4.95087 15.8371 4.85105 15.6347 4.94463L13.7328 5.77439C13.5242 5.86174 13.426 6.11129 13.518 6.31717C13.5855 6.47314 13.7389 6.56672 13.8923 6.56672Z" fill="#146849"/>
<path d="M3.89199 15.3385L5.13744 13.654C5.27242 13.4731 5.2356 13.2111 5.05768 13.0738C4.87976 12.9366 4.62208 12.974 4.48711 13.1549L3.24166 14.8394C3.10669 15.0203 3.1435 15.2824 3.32142 15.4196C3.39504 15.4758 3.48093 15.5007 3.56683 15.5007C3.68953 15.507 3.81224 15.4446 3.89199 15.3385Z" fill="#146849"/>
<path d="M11.7394 4.00894C11.813 4.06508 11.8989 4.09004 11.9848 4.09004C12.1075 4.09004 12.2302 4.03389 12.31 3.9216L13.5554 2.2434C13.6904 2.06247 13.6536 1.80045 13.4757 1.6632C13.2977 1.52595 13.0401 1.56338 12.9051 1.7443L11.6596 3.42874C11.5247 3.60966 11.5615 3.87169 11.7394 4.00894Z" fill="#146849"/>
</svg>
