<?xml version="1.0" encoding="UTF-8"?> <svg xmlns="http://www.w3.org/2000/svg" width="56" height="56" viewBox="0 0 56 56" fill="none"><path d="M54.1582 18.5874L52.5603 19.1533C53.9425 23.1023 54.3606 27.3245 53.7795 31.4679C53.1985 35.6113 51.6351 39.5558 49.2199 42.9722C46.8047 46.3887 43.6076 49.1782 39.8953 51.108C36.183 53.0378 32.0631 54.0521 27.8792 54.0662H27.8114C23.7111 54.0601 19.6697 53.0891 16.0142 51.2317C12.3587 49.3743 9.19161 46.6826 6.76913 43.3744H10.7343V41.679H3.87207V48.556H5.56749V44.6121C8.1537 48.0687 11.5092 50.8758 15.3682 52.811C19.2272 54.7462 23.4837 55.7564 27.8008 55.7616H27.8792C32.3376 55.7565 36.7298 54.683 40.6879 52.6309C44.6459 50.5789 48.0546 47.6081 50.6281 43.9676C53.2017 40.327 54.8653 36.1226 55.4795 31.7067C56.0937 27.2909 55.6406 22.7921 54.1582 18.5874Z" fill="#146849"></path><path d="M27.5697 1.69708C31.5384 1.6524 35.4654 2.50972 39.0543 4.20435C42.6433 5.89898 45.8005 8.38665 48.2877 11.4796H44.3946V13.1751H51.2504V6.29802H49.555V10.3522C46.9053 7.07913 43.5495 4.44787 39.7389 2.65541C35.9282 0.862947 31.7615 -0.0442748 27.5506 0.00166132C12.3617 0.175442 2.82898e-05 12.677 2.82898e-05 27.8722C-0.00449038 31.0412 0.53234 34.1876 1.58736 37.1758L3.18529 36.61C2.19734 33.803 1.69565 30.848 1.7018 27.8722C1.69544 13.601 13.3048 1.86026 27.5697 1.69708Z" fill="#146849"></path><path d="M38.3226 24.6234H29.5445L32.8527 8.72888L17.5537 31.7866H25.9312L21.0887 47.2573L38.3226 24.6234ZM20.7135 30.089L29.4026 16.9983L27.4634 26.3231H34.9063L25.5963 38.5492L28.2433 30.0933L20.7135 30.089Z" fill="#146849"></path></svg> 