<svg width="47" height="39" viewBox="0 0 47 39" fill="none" xmlns="http://www.w3.org/2000/svg">
<path d="M0.795593 36.2448C0.619156 36.2448 0.442718 36.186 0.325093 36.0683C0.148656 35.8919 0.0898438 35.7154 0.0898438 35.4802V19.4824C0.0898438 19.3059 0.148656 19.0707 0.325093 18.9531C0.501531 18.8354 0.677968 18.7766 0.854405 18.7766L6.32396 19.3648C6.67684 19.4236 6.9709 19.7177 6.9709 20.0705V34.892C6.9709 35.2449 6.67684 35.539 6.32396 35.5978L0.854405 36.186C0.854405 36.2448 0.854405 36.2448 0.795593 36.2448ZM1.50134 20.3058V34.7156L5.50059 34.245V20.7175L1.50134 20.3058Z" fill="#146849"/>
<path d="M28.4969 38.479H20.1455C18.3812 38.479 16.6756 38.0085 15.1465 37.0674L9.44167 34.2443H6.26581C5.85412 34.2443 5.56006 33.9502 5.56006 33.5385V22.3634C5.56006 22.0693 5.7365 21.8341 6.03056 21.7164L8.97118 20.5401C9.91217 20.1872 10.912 19.952 11.9118 19.952H15.1465C15.6758 19.952 16.2051 20.0108 16.7344 20.1284L27.9088 22.3634C29.085 22.5987 30.2024 23.1868 31.0846 24.0691C31.4963 24.4808 31.7316 25.069 31.7316 25.6571C31.7316 26.8923 30.7318 27.9509 29.4379 27.9509L20.2632 27.2452L26.9089 30.9506H34.0252L43.1412 28.245C43.9057 28.0098 44.7879 28.1862 45.4348 28.6567C45.9642 29.0684 46.317 29.6566 46.4347 30.3624C46.5523 31.0682 46.3758 31.7152 45.9642 32.2445C45.6701 32.6562 45.2584 32.9503 44.7879 33.1268L31.7316 38.0085C30.6141 38.3026 29.5555 38.479 28.4969 38.479ZM6.97156 32.7739H9.50049C9.5593 32.7739 9.67692 32.7739 9.73574 32.7739C9.79455 32.7739 9.85336 32.8327 9.91217 32.8327L15.7934 35.7147C15.7934 35.7147 15.8522 35.7147 15.8522 35.7735C17.1461 36.5969 18.6164 37.0086 20.0867 37.0086H28.4381C29.3203 37.0086 30.2613 36.8322 31.0846 36.5381L44.1998 31.7152C44.435 31.6564 44.6115 31.4799 44.7291 31.3035C44.9055 31.0682 44.9643 30.7741 44.9643 30.48C44.9055 30.186 44.7879 29.8919 44.5527 29.7154C44.2586 29.4802 43.8469 29.4213 43.5529 29.539L34.3781 32.2445C34.2605 32.3033 34.1429 32.3033 34.0841 32.3033H26.7325C26.5561 32.3033 26.3796 32.2445 26.2032 32.1857L18.0283 27.6569C17.6754 27.4804 17.499 27.1275 17.499 26.7158C17.499 26.4217 17.6166 26.1276 17.793 25.9512C17.9695 25.7748 18.2635 25.6571 18.5576 25.6571L29.3791 26.4805C29.7908 26.4805 30.1436 26.0688 30.1436 25.6571C30.1436 25.4219 30.0848 25.2454 29.9084 25.069C29.2614 24.422 28.3793 23.9515 27.4971 23.775L16.3227 21.54C15.911 21.4812 15.4993 21.4224 15.0288 21.4224H11.7942C10.9708 21.4224 10.1474 21.5988 9.38286 21.8929L6.91274 22.8928V32.7739H6.97156Z" fill="#146849"/>
<path d="M23.3323 16.7893L15.4497 8.98064L16.7139 7.71638L23.3323 14.3351L37.164 0.502686L38.4282 1.76694L23.3323 16.7893Z" fill="#146849"/>
</svg>
