<?xml version="1.0" encoding="UTF-8"?> <svg xmlns="http://www.w3.org/2000/svg" width="49" height="46" viewBox="0 0 49 46" fill="none"><path d="M40.2 34H38.8V1.5H14.4V23H13V0H40.2V34Z" fill="#146849"></path><path d="M25.7 10.2L23 7.60001L24 6.60001L25.6 8.10001L29.2 4.5L30.2 5.60001L25.7 10.2Z" fill="#146849"></path><path d="M34.3984 12.8999H18.8984V14.3999H34.3984V12.8999Z" fill="#146849"></path><path d="M34.3984 18.1001H18.8984V19.6001H34.3984V18.1001Z" fill="#146849"></path><path d="M34.3984 23.2998H18.8984V24.7998H34.3984V23.2998Z" fill="#146849"></path><path d="M25.4 45.8001C23.5 45.8001 21.6 45.7001 19.7 45.6001C18 45.4001 16.4 44.9001 14.9 44.1001L14.3 43.7001C13.1 42.9001 10.6 41.4001 9.89999 41.4001H5.89999C5.49999 41.4001 5.19998 41.1001 5.19998 40.7001V26.8001L1.39999 25.8001V42.5001L3.10001 42.0001L3.5 43.4001L0.899994 44.1001C0.699994 44.2001 0.399988 44.1001 0.299988 44.0001C0.0999878 43.9001 0 43.6001 0 43.4001V24.9001C0 24.7001 0.0999878 24.5001 0.299988 24.3001C0.499988 24.2001 0.699994 24.1001 0.899994 24.2001L6.19998 25.5001C6.49998 25.6001 6.79998 25.9001 6.69998 26.2001V28.4001C8.29998 27.5001 10.1 26.9001 12 26.7001H12.2C14.5 26.5001 16.8 26.7001 19 27.2001C19.9 27.4001 21.2 27.7001 22.6 28.0001C25.3 28.4001 27.9 29.0001 30.5 29.8001L30.8 29.9001C32.1 30.3001 33.1 31.5001 33.1 32.9001C33.1 33.4001 32.9 33.9001 32.5 34.3001C31.6 34.9001 30.6 35.2001 29.5 35.0001H29.4C28.9 35.0001 24.5 34.6001 21.5 34.4001C24.7 36.4001 27.8 38.2001 28.4 38.2001C28.8 38.2001 29.3 38.2001 30 38.2001C31.6 38.3001 33.3 38.3001 34.9 38.2001C37.1 37.7001 39.3 37.1001 41.5 36.4001C43 35.9001 44.3 35.5001 45.4 35.2001C45.9 35.1001 46.5 35.2001 47 35.5001C47.6 35.9001 48 36.4001 48.1 37.1001C48.4 38.7001 48.1 39.7001 45.1 40.9001C42.9 41.8001 32.5 45.7001 31 45.8001C29.3 45.8001 27.4 45.8001 25.4 45.8001ZM6.60001 39.9001H9.79999C10.9 39.9001 12.8 41.0001 15 42.4001L15.6 42.8001C16.9 43.5001 18.3 44.0001 19.8 44.1001C23.4 44.4001 26.9 44.4001 30.5 44.2001C31.6 44.1001 40.9 40.8001 44.2 39.4001C46.6 38.4001 46.5 37.9001 46.3 37.2001C46.2 36.9001 46.1 36.7001 45.9 36.6001C45.8 36.5001 45.6 36.5001 45.4 36.5001C44.4 36.8001 43 37.2001 41.6 37.6001C39.4 38.4001 37.1 39.0001 34.8 39.5001C33.1 39.6001 31.4 39.7001 29.7 39.6001H28.2C26.8 39.6001 20.7 35.7001 18.1 34.0001C17.8 33.8001 17.7 33.5001 17.8 33.2001C17.9 32.9001 18.2 32.7001 18.6 32.7001C22.1 33.0001 28.8 33.5001 29.4 33.5001H29.5C29.9 33.5001 31 33.6001 31.4 33.2001C31.5 33.1001 31.5 33.0001 31.5 32.8001C31.5 31.9001 30.9 31.6001 30 31.2001L29.7 31.1001C29.2 30.9001 25 30.0001 22.2 29.4001L18.6 28.7001C16.5 28.2001 14.3 28.0001 12.2 28.2001H12C10.2 28.3001 7.59998 29.6001 6.69998 30.1001L6.60001 39.9001Z" fill="#146849"></path></svg> 