<?xml version="1.0" encoding="UTF-8"?> <svg xmlns="http://www.w3.org/2000/svg" width="48" height="48" viewBox="0 0 48 48" fill="none"><path d="M27.4 45.225H6.10001C5.70001 45.225 5.39999 44.925 5.39999 44.525V24.625H0.699982C0.299982 24.625 0 24.325 0 23.925C0 23.725 0.0999817 23.525 0.199982 23.425L23.7 0.225C24 -0.075 24.4 -0.075 24.7 0.225L31.2 6.725V3.32499C31.2 2.92499 31.5 2.62499 31.9 2.62499H37.1C37.5 2.62499 37.8 2.92499 37.8 3.32499V13.325L45.4 20.925L44.4 21.925L36.6 14.125C36.5 14.025 36.4 13.825 36.4 13.625V3.925H32.7V8.32499C32.7 8.72499 32.4 9.025 32 9.025C31.8 9.025 31.6 8.92499 31.5 8.82499L24.3 1.62499L2.5 23.025H6.19998C6.59998 23.025 6.89999 23.325 6.89999 23.725V43.625H27.5L27.4 45.225Z" fill="#146849"></path><path d="M38.2969 47.9246L37.8969 47.7246C36.9969 47.2246 28.7969 42.3246 28.7969 38.3246V26.4246L38.2969 23.7246L47.7969 26.4246V38.3246C47.7969 42.4246 39.5969 47.2246 38.6969 47.7246L38.2969 47.9246ZM30.2969 27.5246V38.3246C30.2969 40.9246 35.7969 44.7246 38.2969 46.3246C40.7969 44.8246 46.2969 40.9246 46.2969 38.3246V27.5246L38.2969 25.2246L30.2969 27.5246Z" fill="#146849"></path><path d="M37.2969 37.825L34.2969 34.925L35.2969 33.925L37.1969 35.725L41.3969 31.625L42.3969 32.625L37.2969 37.825Z" fill="#146849"></path></svg> 