<?xml version="1.0" encoding="UTF-8"?> <svg xmlns="http://www.w3.org/2000/svg" width="50" height="50" viewBox="0 0 50 50" fill="none"><path d="M25.854 46.7299H7.95401C7.55401 46.7299 7.254 46.4299 7.254 46.0299V26.1299H2.55399C2.15399 26.1299 1.854 25.8299 1.854 25.4299C1.854 25.2299 1.95399 25.0299 2.05399 24.9299L25.554 1.72988C25.854 1.42988 26.254 1.42988 26.554 1.72988L33.054 8.22988V4.82987C33.054 4.42987 33.354 4.12988 33.754 4.12988H38.954C39.354 4.12988 39.654 4.42987 39.654 4.82987V14.8299L48.354 23.4299H46.254L38.454 15.6299C38.354 15.5299 38.254 15.3299 38.254 15.1299V5.42988H34.554V9.82987C34.554 10.2299 34.254 10.5299 33.854 10.5299C33.654 10.5299 33.454 10.4299 33.354 10.3299L26.154 3.12988L4.354 24.5299H8.05399C8.45399 24.5299 8.754 24.8299 8.754 25.2299V45.1299H25.854V46.7299Z" fill="#146849"></path><path fill-rule="evenodd" clip-rule="evenodd" d="M32.9342 40.104C31.6855 41.881 32.064 44.3235 33.8053 45.5471C35.5466 46.7706 37.9728 46.2988 39.2215 44.5217L41.7587 40.9107L43.0441 41.8139L40.5068 45.4249C38.7273 47.9575 35.3008 48.6008 32.8631 46.8879C30.4254 45.1751 29.8693 41.7333 31.6488 39.2008L34.1861 35.5898L35.4714 36.493L32.9342 40.104ZM36.2383 40.6188L41.3128 33.3969L42.6917 34.3657L37.6172 41.5877L36.2383 40.6188ZM39.7085 30.4628L37.1713 34.0738L35.8859 33.1706L38.4231 29.5596C40.2027 27.0271 43.6292 26.3838 46.0669 28.0966C48.5046 29.8094 49.0607 33.2512 47.2812 35.7838L44.7439 39.3948L43.4585 38.4916L45.9958 34.8806C47.2444 33.1036 46.866 30.661 45.1247 29.4375C43.3834 28.214 40.9572 28.6858 39.7085 30.4628Z" fill="#146849"></path><path d="M33.604 24.2937H26.4189L29.1267 11.5049L16.604 30.0571H23.4612L19.4975 42.5049L33.604 24.2937ZM19.1904 28.6913L26.3027 18.1585L24.7154 25.6612H30.8077L23.1872 35.4983L25.3538 28.6947L19.1904 28.6913Z" fill="#146849"></path></svg> 