<?xml version="1.0" encoding="UTF-8"?> <svg xmlns="http://www.w3.org/2000/svg" width="49" height="46" viewBox="0 0 49 46" fill="none"><path d="M5.19766 45.1996C3.99766 45.1996 2.79767 44.6996 1.89767 43.7996L1.69766 43.5996C-0.102344 41.7996 -0.102344 38.8996 1.69766 37.0996L15.1977 23.5996L21.8977 30.2996L8.49767 43.7996C7.59767 44.6996 6.39766 45.1996 5.19766 45.1996ZM2.79766 38.1996C1.59766 39.3996 1.59766 41.3996 2.79766 42.6996L2.99767 42.8996C4.19767 44.0996 6.19767 44.0996 7.49767 42.8996L19.9977 30.3996L15.2977 25.7996L2.79766 38.1996Z" fill="#146849"></path><path d="M28.498 20L27.398 19L40.898 5.5L41.698 6.40001L43.798 2.90001L42.698 1.8L39.298 3.90001L39.998 4.7L26.5981 18.1L25.498 17.1L37.998 4.7L36.898 3.60001L42.898 0L45.5981 2.7L41.998 8.7L40.898 7.60001L28.498 20Z" fill="#146849"></path><path d="M19.8382 22.841L16.6562 26.0229L17.6462 27.0129L20.8281 23.8309L19.8382 22.841Z" fill="#146849"></path><path d="M43.597 45.5997C42.2971 45.5997 41.097 45.0997 40.197 44.1997L24.597 28.5997L25.597 27.5997L41.197 43.1997C42.597 44.3997 44.597 44.2997 45.897 42.8997C46.997 41.5997 46.997 39.6997 45.897 38.4997L18.497 11.0997L18.5971 10.6997C19.597 6.79967 17.297 2.79968 13.397 1.79968C12.597 1.59968 11.797 1.49968 10.897 1.59968L15.197 5.89969L12.997 10.3997L8.49704 12.5997L4.19703 8.29968C3.89703 12.2997 6.89704 15.7997 10.897 16.1997C11.697 16.2997 12.597 16.1997 13.397 15.9997L13.797 15.8997L23.197 25.2997L18.997 29.4997L16.5971 27.0997L17.5971 26.0997L18.997 27.4997L21.197 25.2997L13.397 17.4997C8.69704 18.4997 3.99704 15.4997 2.99704 10.7997C2.69704 9.39968 2.69705 7.99967 3.09705 6.69967L3.39704 5.49968L8.89704 10.8997L11.997 9.29968L13.497 6.19967L8.09705 0.79968L9.29703 0.499677C13.997 -0.800323 18.797 1.99967 19.997 6.69967C20.397 7.99967 20.397 9.49968 20.097 10.7997L46.897 37.5997C48.797 39.4997 48.797 42.4997 46.897 44.2997C46.097 45.0997 44.897 45.5997 43.597 45.5997Z" fill="#146849"></path></svg> 