<?xml version="1.0" encoding="UTF-8"?> <svg xmlns="http://www.w3.org/2000/svg" width="48" height="48" viewBox="0 0 48 48" fill="none"><path d="M42.8425 35.0704C42.8425 35.0703 42.8423 35.0702 42.8422 35.0701L42.8415 35.0708L34.1029 26.3322C33.8348 26.0642 33.4002 26.0642 33.1321 26.3322L31.1878 28.2772L28.7601 25.8495L31.2619 23.3505C34.7093 24.1236 38.3127 23.0833 40.8175 20.5918C43.6161 17.7723 44.5563 13.6008 43.2377 9.85331C43.159 9.63146 42.9722 9.4654 42.7426 9.41322C42.5129 9.36216 42.273 9.43116 42.1055 9.59653L37.2309 14.467L33.5921 13.2539L32.379 9.61507L37.2495 4.74047C37.5173 4.47211 37.5169 4.03735 37.2484 3.7695C37.1763 3.69741 37.0888 3.6424 36.9927 3.60833C31.6348 1.6996 25.7441 4.49571 23.8354 9.85348C23.1807 11.691 23.0615 13.6766 23.4914 15.5792L20.9923 18.0811L12.2407 9.32328L11.9661 6.36351C11.9433 6.11815 11.7908 5.90385 11.5665 5.8019L6.22642 3.37833C5.96647 3.25964 5.66026 3.31431 5.45747 3.51564L3.52136 5.45175C3.32002 5.65454 3.26536 5.96075 3.38405 6.2207L5.80761 11.5622C5.90948 11.7869 6.12412 11.9398 6.36991 11.9624L9.32968 12.2371L18.0847 20.9887L4.40497 34.6671C2.53168 36.5455 2.53168 39.5856 4.40497 41.464L5.37302 42.4321C7.25163 44.305 10.2914 44.305 12.17 42.4321L25.8532 28.7565L28.2809 31.1835L26.3358 33.1292C26.0678 33.3973 26.0678 33.8319 26.3358 34.1L35.0744 42.8379C36.9524 44.7123 39.9934 44.7123 41.8714 42.8379L42.8422 41.8671C44.7191 39.9903 44.7193 36.9473 42.8425 35.0704ZM10.122 11.0905C10.0087 10.9771 9.85937 10.9069 9.69974 10.8921L6.89032 10.6339L4.83063 6.08888L6.09391 4.82492L10.639 6.88461L10.8978 9.69334C10.9125 9.85288 10.9824 10.0022 11.0955 10.1156L20.0208 19.0491L19.0548 20.0151L10.122 11.0905ZM11.2019 41.464C9.85954 42.8035 7.68622 42.8035 6.34382 41.464L5.37577 40.496C4.03628 39.1536 4.03628 36.9803 5.37577 35.6379L24.7368 16.2768C24.9104 16.1033 24.9782 15.8505 24.9147 15.6136C23.6521 10.8401 26.4982 5.94685 31.2717 4.68426C32.6383 4.32278 34.0712 4.29052 35.4527 4.59011L31.1068 8.94155C30.9229 9.12564 30.8588 9.39786 30.9413 9.64459L32.3968 14.0111C32.4653 14.2161 32.6263 14.3769 32.8314 14.445L37.198 15.8999C37.4442 15.982 37.7157 15.9182 37.8996 15.7351L42.2518 11.3891C43.3119 16.2008 40.2707 20.9608 35.4591 22.0209C34.0613 22.3289 32.61 22.2961 31.2276 21.9251C30.9908 21.8606 30.7377 21.9286 30.5651 22.103L11.2019 41.464ZM26.824 27.7857L27.6039 27.0057L27.7893 26.8203L30.2197 29.248L29.2517 30.2161L26.824 27.7857ZM41.8707 40.8963V40.899L40.8999 41.8671C39.5584 43.2053 37.3868 43.2053 36.0452 41.8671L27.792 33.6146L33.6175 27.7884L41.8707 36.0416C43.2113 37.3822 43.2113 39.5557 41.8707 40.8963Z" fill="#146849"></path></svg> 