<svg width="27" height="26" viewBox="0 0 27 26" fill="none" xmlns="http://www.w3.org/2000/svg">
<g clip-path="url(#clip0_5864_32103)">
<path d="M13.48 24.517H4.172C3.964 24.517 3.808 24.361 3.808 24.153V13.805H1.36399C1.15599 13.805 1 13.649 1 13.441C1 13.337 1.05199 13.233 1.10399 13.181L13.324 1.117C13.48 0.961 13.688 0.961 13.844 1.117L17.224 4.497V2.729C17.224 2.521 17.38 2.365 17.588 2.365H20.292C20.5 2.365 20.656 2.521 20.656 2.729V7.929L25.18 12.401H24.088L20.032 8.345C19.98 8.293 19.928 8.189 19.928 8.085V3.041H18.004V5.329C18.004 5.537 17.848 5.693 17.64 5.693C17.536 5.693 17.432 5.641 17.38 5.589L13.636 1.845L2.3 12.973H4.22399C4.43199 12.973 4.588 13.129 4.588 13.337V23.685H13.48V24.517Z" fill="#146849"/>
<path d="M23.68 16.6502H19.9437L21.3518 10L14.84 19.6472H18.4058L16.3446 26.12L23.68 16.6502ZM16.1849 18.9369L19.8833 13.4599L19.0579 17.3613H22.2259L18.2632 22.4766L19.3899 18.9387L16.1849 18.9369Z" fill="#146849"/>
<path fill-rule="evenodd" clip-rule="evenodd" d="M11.8236 21.4496C11.3625 21.2979 10.9278 21.1049 10.4931 20.8441L9.54531 21.1786C9.37805 21.2344 9.26653 21.1786 9.15503 21.0671L7.81692 19.7848C7.70541 19.6732 7.64966 19.506 7.70541 19.3387L8.03993 18.3909C7.70541 17.8333 7.4824 17.2758 7.31513 16.6625L6.42306 16.2165C6.25579 16.1607 6.20004 15.9934 6.20004 15.8819V14.042C6.20004 13.8748 6.31155 13.7633 6.42306 13.7075L7.31513 13.2615C7.4824 12.6482 7.70541 12.0906 8.03993 11.5331L7.70541 10.5853C7.64966 10.418 7.70541 10.2507 7.81692 10.1392L9.09928 8.85687C9.21078 8.74536 9.37805 8.68961 9.48956 8.74536L10.4374 9.07989C10.9949 8.74536 11.5525 8.52234 12.1658 8.35508L12.6118 7.463C12.6676 7.3515 12.8348 7.23999 12.9463 7.23999H14.7862C14.9535 7.23999 15.065 7.3515 15.1765 7.463L15.6226 8.35508C16.2359 8.52234 16.7934 8.74536 17.3509 9.07989L18.2988 8.74536C18.466 8.68961 18.6333 8.74536 18.7448 8.85687L19.7288 9.79983L19.329 10.3889L18.4103 9.47017L17.5182 9.74894C17.4067 9.80469 17.2952 9.74895 17.1837 9.69319L17.1837 9.69319C16.6261 9.35866 16.0128 9.07989 15.3438 8.91263L15.3438 8.91262C15.2323 8.85687 15.1208 8.80112 15.065 8.68961L14.619 7.85329H13.2809L12.8348 8.68961C12.7791 8.80112 12.6676 8.85687 12.5561 8.91262L12.5561 8.91263C11.887 9.07989 11.2737 9.3029 10.7162 9.69319L10.7161 9.69319C10.6046 9.74895 10.4931 9.8047 10.3816 9.74894L9.48956 9.47017L8.54173 10.418L8.8205 11.3101C8.87625 11.4216 8.82051 11.5331 8.76475 11.6446L8.76475 11.6446C8.43022 12.2021 8.15145 12.8154 7.98419 13.4845C7.92843 13.596 7.87267 13.7075 7.76116 13.7633L6.92484 14.2093V15.4917L7.76116 15.9377C7.87267 15.9935 7.92843 16.105 7.98419 16.2165C8.15145 16.8855 8.37446 17.4988 8.76475 18.0564C8.8205 18.1679 8.8205 18.2794 8.8205 18.3909L8.54173 19.283L9.32229 20.0635L9.48956 20.2308L10.3816 19.952C10.4931 19.8963 10.6046 19.952 10.7162 20.0078C11.2065 20.302 11.74 20.5531 12.3165 20.7231L11.8236 21.4496Z" fill="#146849"/>
<path fill-rule="evenodd" clip-rule="evenodd" d="M17.5219 13.052C16.8277 11.7869 15.4807 10.9198 13.9497 10.9198C11.7195 10.9198 9.87964 12.7597 9.87964 14.9899C9.87964 17.0562 11.4591 18.7874 13.4649 19.0307L14.0515 18.1663C14.0177 18.1674 13.9838 18.1679 13.9497 18.1679C12.1656 18.1679 10.716 16.7183 10.716 14.9341C10.716 13.15 12.1656 11.7004 13.9497 11.7004C15.3478 11.7004 16.5405 12.5905 16.9911 13.8342L17.5219 13.052Z" fill="#146849"/>
</g>
<defs>
<clipPath id="clip0_5864_32103">
<rect width="26" height="26" fill="white" transform="translate(0.392365)"/>
</clipPath>
</defs>
</svg>
