<svg width="41" height="42" viewBox="0 0 41 42" fill="none" xmlns="http://www.w3.org/2000/svg">
<path d="M29.6357 41.088C29.5443 41.088 29.4612 41.0715 29.3865 41.0385C28.9711 40.8653 19.2422 36.6667 19.2422 28.187V20.8291C19.2422 20.5486 19.4167 20.3094 19.6825 20.2187L29.428 16.9522C29.4945 16.9274 29.5692 16.9192 29.6357 16.9192C29.7105 16.9192 29.7769 16.9274 29.8434 16.9522L39.5889 20.2187C39.8548 20.3094 40.0292 20.5569 40.0292 20.8291V28.187C40.0292 36.6667 30.3004 40.8653 29.885 41.0385C29.8019 41.0715 29.7188 41.088 29.6357 41.088ZM20.5383 21.2993V28.187C20.5383 35.0334 28.0322 38.9681 29.536 39.6857L29.6357 39.7352L29.7354 39.6857C31.2392 38.9681 38.7332 35.0252 38.7332 28.187V21.2993L29.6357 18.2472L20.5383 21.2993Z" fill="#146849"/>
<path d="M28.722 32.2948H28.7054C28.5143 32.2865 28.3481 32.1958 28.2318 32.0556L24.6842 27.659C24.4599 27.3785 24.5098 26.9744 24.7839 26.7516C24.9003 26.6609 25.0415 26.6114 25.191 26.6114C25.3904 26.6114 25.5732 26.7022 25.6978 26.8506L28.7885 30.6863L34.4796 25.0359C34.6042 24.9122 34.7621 24.8462 34.9365 24.8462C35.111 24.8462 35.2772 24.9122 35.3935 25.0359C35.5181 25.1596 35.5846 25.3164 35.5846 25.4896C35.5846 25.6628 35.5181 25.8278 35.3935 25.9433L29.1873 32.1051C29.0626 32.2288 28.8965 32.2948 28.7303 32.2948H28.722C28.7303 32.2948 28.7303 32.2948 28.722 32.2948Z" fill="#146849"/>
<path d="M6.62162 34.7273C5.89881 34.7273 5.31723 34.1499 5.31723 33.4323V18.8898H1.53701C0.672963 18.8898 0 18.2216 0 17.3637C0 16.9348 0.191088 16.5059 0.498491 16.2337L17.9291 0.173383C18.0786 0.0414032 18.278 -0.0245867 18.4774 0.00840823C18.6103 0.0331544 18.7266 0.0991443 18.8263 0.18988L24.8082 5.70003V2.40879C24.8082 2.05409 25.099 1.76539 25.4563 1.76539H30.7735C31.1307 1.76539 31.4215 2.05409 31.4215 2.40879V11.7876L34.4042 14.6994C34.5288 14.8149 34.6036 14.9799 34.6119 15.1531C34.6202 15.3263 34.5537 15.4913 34.4374 15.615C34.3128 15.747 34.1466 15.8212 33.9638 15.8212C33.7977 15.8212 33.6398 15.7635 33.5235 15.648L30.3415 12.5382C30.2085 12.4228 30.1338 12.2495 30.1338 12.0681V3.05219H26.1209V7.14356C26.1209 7.39103 25.9381 7.67973 25.7138 7.77047C25.639 7.80346 25.556 7.81996 25.4646 7.81996C25.2984 7.81996 25.1406 7.76222 25.0242 7.64674L18.3777 1.52618L1.27946 17.273C1.15484 17.3885 1.23792 17.5865 1.40408 17.5865L5.97358 17.5947C6.33083 17.5947 6.62162 17.8834 6.62162 18.2381V33.4323H16.5831C16.9321 33.4323 17.2312 33.688 17.2561 34.0344C17.281 34.4139 16.9819 34.7273 16.608 34.7273H6.62162Z" fill="#146849"/>
</svg>
