<svg width="48" height="48" viewBox="0 0 48 48" fill="none" xmlns="http://www.w3.org/2000/svg">
<path d="M34.5458 17.5189L32.4015 15.4183L33.2469 14.5826L35.3067 16.5996L40.9714 11L41.8168 11.8358L35.9831 17.6025C35.5604 17.8532 34.884 17.8532 34.5458 17.5189Z" fill="#146849"/>
<path d="M22.4887 28.2805V29.7812H13.8119V28.6082L18.7282 23.8645C19.3262 23.2895 19.7287 22.795 19.9357 22.381C20.1427 21.9555 20.2462 21.53 20.2462 21.1045C20.2462 20.472 20.0219 19.9832 19.5734 19.6382C19.1364 19.2817 18.5039 19.1035 17.6759 19.1035C16.3419 19.1035 15.3127 19.5405 14.5882 20.4145L13.4152 19.3967C13.8867 18.8217 14.5019 18.3732 15.2609 18.0512C16.0314 17.7292 16.8882 17.5682 17.8312 17.5682C19.0962 17.5682 20.1024 17.873 20.8499 18.4825C21.5974 19.0805 21.9712 19.897 21.9712 20.932C21.9712 21.576 21.8332 22.1855 21.5572 22.7605C21.2812 23.3355 20.7579 23.991 19.9874 24.727L16.2959 28.2805H22.4887ZM28.0999 29.9192C27.1454 29.9192 26.2944 29.6777 25.5469 29.1947C24.8109 28.7002 24.2302 27.9872 23.8047 27.0557C23.3792 26.1242 23.1664 25.0202 23.1664 23.7437C23.1664 22.4672 23.3792 21.3632 23.8047 20.4317C24.2302 19.5002 24.8109 18.793 25.5469 18.31C26.2944 17.8155 27.1454 17.5682 28.0999 17.5682C29.0429 17.5682 29.8824 17.8155 30.6184 18.31C31.3659 18.793 31.9524 19.5002 32.3779 20.4317C32.8034 21.3632 33.0162 22.4672 33.0162 23.7437C33.0162 25.0202 32.8034 26.1242 32.3779 27.0557C31.9524 27.9872 31.3659 28.7002 30.6184 29.1947C29.8824 29.6777 29.0429 29.9192 28.0999 29.9192ZM28.0999 28.384C29.0659 28.384 29.8364 27.9872 30.4114 27.1937C30.9979 26.4002 31.2912 25.2502 31.2912 23.7437C31.2912 22.2372 30.9979 21.0872 30.4114 20.2937C29.8364 19.5002 29.0659 19.1035 28.0999 19.1035C27.1224 19.1035 26.3404 19.5002 25.7539 20.2937C25.1789 21.0872 24.8914 22.2372 24.8914 23.7437C24.8914 25.2502 25.1789 26.4002 25.7539 27.1937C26.3404 27.9872 27.1224 28.384 28.0999 28.384Z" fill="#146849"/>
<path fill-rule="evenodd" clip-rule="evenodd" d="M39.2917 19.1541C40.3558 22.5116 40.2894 26.1431 39.0754 29.4818C37.6735 33.3373 34.8476 36.5091 31.1789 38.3451C27.5102 40.1811 23.2775 40.5417 19.3511 39.3527C15.4247 38.1638 12.1031 35.5157 10.0692 31.9529C8.03523 28.3902 7.44363 24.1835 8.41599 20.198C9.38836 16.2124 11.8508 12.7509 15.297 10.5251C18.7431 8.29934 22.9111 7.4785 26.9439 8.23139C29.6235 8.73166 32.1082 9.90149 34.1811 11.604L35.0003 10.8004C32.761 8.93428 30.0646 7.65295 27.1533 7.10944C22.8336 6.30298 18.3691 7.18222 14.6777 9.56636C10.9864 11.9505 8.34873 15.6583 7.30718 19.9275C6.26563 24.1966 6.89933 28.7025 9.07797 32.5188C11.2566 36.3351 14.8146 39.1716 19.0204 40.4451C23.2261 41.7186 27.76 41.3324 31.6897 39.3657C35.6194 37.3991 38.6463 34.0016 40.148 29.8718C41.5142 26.1147 41.5235 22.0112 40.1973 18.2657L39.2917 19.1541Z" fill="#146849"/>
</svg>
