<svg width="48" height="48" viewBox="0 0 48 48" fill="none" xmlns="http://www.w3.org/2000/svg">
<path d="M23.4751 41.4746C22.7313 41.4746 22.0845 41.1243 21.233 40.2674C20.7456 39.721 20.1055 39.3334 19.3954 39.1547C18.6854 38.976 17.9381 39.0144 17.2501 39.2649C15.3098 39.8039 14.2642 39.211 13.569 37.2546C13.4364 36.9494 13.3423 36.629 13.2887 36.3006C13.1761 35.8409 12.9406 35.4205 12.6074 35.0844C12.2741 34.7483 11.8557 34.5092 11.3969 34.3927C8.30869 33.3848 7.95837 32.7327 8.60512 29.542C8.72489 29.1228 8.7332 28.6795 8.62922 28.2561C8.52525 27.8326 8.31259 27.4436 8.01227 27.1275C5.66779 24.4327 5.66779 24.0123 8.01227 21.3013C8.30663 20.983 8.51153 20.5925 8.60619 20.1693C8.70084 19.7462 8.68188 19.3056 8.55123 18.8922C7.90447 15.7231 8.30331 15.0709 11.2892 14.0415C11.7659 13.9386 12.2049 13.706 12.5578 13.3693C12.9106 13.0326 13.1636 12.605 13.2887 12.1336C13.3372 12.0366 13.3372 11.9342 13.3911 11.7833L13.4396 11.7348C14.3127 9.12081 15.0619 8.70042 17.6489 9.32023C18.254 9.49726 18.8966 9.50176 19.5041 9.33321C20.1116 9.16466 20.66 8.82976 21.0875 8.36627C22.99 6.54458 24.0248 6.54458 25.9166 8.36627C26.9621 9.37412 28.0077 9.67594 29.3012 9.27172C29.6563 9.18428 30.0163 9.11769 30.3792 9.0723H30.5354C31.0693 8.97663 31.6197 9.07581 32.0866 9.35178C32.5535 9.62776 32.9058 10.0622 33.0793 10.576C33.2788 11.0826 33.5267 11.7348 33.7746 12.4354C33.8717 12.7814 34.0552 13.097 34.3079 13.3525C34.5606 13.608 34.8741 13.7951 35.219 13.896C35.8479 14.0896 36.4636 14.3237 37.0623 14.5967C37.5745 14.7732 38.0124 15.1169 38.3057 15.5724C38.5989 16.0279 38.7305 16.5689 38.6792 17.1082V17.1567C38.6792 17.3076 38.6253 17.4585 38.6253 17.6094C38.5865 17.9733 38.5198 18.3337 38.4258 18.6874C38.0809 19.7653 38.3288 20.6492 39.175 21.6031C41.2177 23.8614 41.2177 24.6159 39.175 26.8742C38.3288 27.8335 38.0971 28.6851 38.4258 29.79C38.4797 30.0433 38.5282 30.2427 38.5767 30.4421L38.6253 30.6469C38.9271 32.35 38.3773 33.3417 36.782 34.01C36.6955 34.0728 36.5924 34.1084 36.4856 34.1124C34.8417 34.4143 33.8447 35.3682 33.3973 37.1737C33.3357 37.5658 33.1932 37.9407 32.9788 38.2748C32.7645 38.6088 32.483 38.8946 32.1523 39.114C31.5541 39.4643 30.8103 39.5128 29.6623 39.211C28.0455 38.7637 26.8759 39.0601 25.7279 40.2889C24.871 41.0704 24.1757 41.4746 23.4751 41.4746ZM18.5975 37.7558C19.2684 37.755 19.9317 37.8991 20.5418 38.1781C21.152 38.4572 21.6948 38.8646 22.133 39.3727C22.4632 39.8009 22.9422 40.0895 23.4751 40.1811C23.8254 40.1811 24.2242 39.9278 24.774 39.3727C25.4051 38.658 26.2349 38.1475 27.1574 37.9066C28.0799 37.6656 29.0534 37.7051 29.9534 38.0199C30.4293 38.2135 30.9588 38.2307 31.4463 38.0684C31.7774 37.7612 32.0036 37.3577 32.093 36.915C32.6913 34.6514 34.0333 33.3471 36.1784 32.9429L36.2269 32.8944C37.3048 32.4902 37.5204 32.0913 37.3048 30.9865L37.2725 30.7978C37.224 30.5984 37.224 30.4475 37.1701 30.2966C36.9378 29.5853 36.908 28.8234 37.0841 28.0962C37.2602 27.369 37.6352 26.7051 38.1671 26.1789C39.811 24.368 39.811 24.368 38.1671 22.611C37.6289 22.0886 37.2462 21.4271 37.0616 20.7001C36.877 19.9732 36.8978 19.2092 37.1216 18.4933C37.2059 18.1982 37.2566 17.8944 37.2725 17.5879C37.2725 17.437 37.321 17.2861 37.321 17.1352C37.3614 16.8708 37.3022 16.6009 37.1548 16.3778C37.0074 16.1547 36.7823 15.9943 36.5233 15.9279C36.0275 15.7285 35.3807 15.4806 34.7825 15.2757C34.2434 15.1275 33.7527 14.8404 33.3592 14.4432C32.9658 14.046 32.6835 13.5526 32.5404 13.0121C32.341 12.36 32.093 11.7563 31.8936 11.2551C31.6457 10.576 31.2954 10.3173 30.6971 10.3766H30.4977C30.1957 10.4006 29.8963 10.4511 29.603 10.5275C28.7958 10.7806 27.9336 10.8017 27.115 10.5882C26.2963 10.3747 25.5542 9.93534 24.9734 9.32023C23.5775 7.96744 23.2756 7.96744 21.8851 9.32023C21.3133 9.91923 20.59 10.3523 19.792 10.5734C18.994 10.7945 18.151 10.7954 17.3525 10.576C15.3583 10.1233 15.2613 10.1772 14.6145 12.1929L14.5606 12.2899C14.5606 12.3438 14.5121 12.4408 14.5121 12.4947C14.3454 13.177 13.9991 13.8023 13.5091 14.3055C13.0191 14.8088 12.4033 15.1717 11.7257 15.3566C9.28421 16.1111 9.28422 16.1111 9.82857 18.6227C9.99996 19.2314 10.0116 19.874 9.86249 20.4886C9.71334 21.1031 9.40838 21.6689 8.97701 22.1313C8.13084 23.0853 7.53259 23.8398 7.53259 24.2441C7.53259 24.6483 8.13084 25.3489 8.97701 26.3029C9.40193 26.771 9.70605 27.3358 9.86292 27.9483C10.0198 28.5607 10.0246 29.2022 9.87707 29.8169C9.27882 32.3824 9.27882 32.3824 11.7203 33.1854C12.389 33.3618 12.9971 33.7168 13.4795 34.2124C13.9618 34.708 14.3001 35.3255 14.4582 35.9988C14.5262 36.2708 14.609 36.5389 14.7062 36.8018C15.202 38.16 15.5523 38.3594 16.8997 38.0091C17.4528 37.8539 18.0232 37.7688 18.5975 37.7558Z" fill="#146849"/>
<path d="M19.7219 18.5576V30.6304H18.0145V20.0581H15.2895V18.5576H19.7219ZM26.6054 30.7683C25.6511 30.7683 24.8003 30.5269 24.0529 30.044C23.317 29.5496 22.7364 28.8367 22.311 27.9054C21.8856 26.9741 21.6728 25.8703 21.6728 24.594C21.6728 23.3177 21.8856 22.214 22.311 21.2826C22.7364 20.3513 23.317 19.6442 24.0529 19.1613C24.8003 18.6669 25.6511 18.4197 26.6054 18.4197C27.5482 18.4197 28.3876 18.6669 29.1234 19.1613C29.8708 19.6442 30.4572 20.3513 30.8826 21.2826C31.308 22.214 31.5207 23.3177 31.5207 24.594C31.5207 25.8703 31.308 26.9741 30.8826 27.9054C30.4572 28.8367 29.8708 29.5496 29.1234 30.044C28.3876 30.5269 27.5482 30.7683 26.6054 30.7683ZM26.6054 29.2334C27.5712 29.2334 28.3416 28.8367 28.9165 28.0434C29.5029 27.25 29.7961 26.1002 29.7961 24.594C29.7961 23.0878 29.5029 21.938 28.9165 21.1447C28.3416 20.3513 27.5712 19.9546 26.6054 19.9546C25.6281 19.9546 24.8462 20.3513 24.2599 21.1447C23.685 21.938 23.3975 23.0878 23.3975 24.594C23.3975 26.1002 23.685 27.25 24.2599 28.0434C24.8462 28.8367 25.6281 29.2334 26.6054 29.2334Z" fill="#146849"/>
</svg>
