<svg width="48" height="48" viewBox="0 0 48 48" fill="none" xmlns="http://www.w3.org/2000/svg">
<path d="M22.8606 30.0742C22.3021 29.5775 21.9805 28.8893 21.9411 28.1837C21.9017 27.4781 22.1445 26.7552 22.6439 26.1934C23.1434 25.6317 23.833 25.3061 24.5384 25.2628C25.3848 25.2107 26.1471 25.5532 26.7096 26.1205L30.642 26.1973C30.7125 26.1929 30.7831 26.1886 30.8575 26.2548L32.6309 26.96C32.8837 27.0506 33.0366 27.2536 33.0524 27.5359C33.0681 27.8181 32.9389 28.0384 32.6979 28.1595L31.0445 28.9691C30.9739 28.9735 30.9073 29.0484 30.8368 29.0527L26.9398 29.6109C26.4816 30.2763 25.7254 30.6768 24.8789 30.7289C24.1403 30.8097 23.4192 30.5708 22.8606 30.0742ZM25.6909 26.8911C25.393 26.6262 25.0325 26.5068 24.6093 26.5328C24.1861 26.5588 23.8413 26.7216 23.5749 27.0212C23.3085 27.3208 23.1871 27.6823 23.2108 28.1056C23.2541 28.8817 23.9616 29.5108 24.7747 29.4963C25.2685 29.4659 25.7132 29.1907 25.9717 28.7501C26.0676 28.5671 26.2381 28.4505 26.4497 28.4375L30.521 27.8331L30.8991 27.6329L30.5013 27.4803L26.3906 27.3791C26.179 27.3921 25.9967 27.2971 25.8811 27.1272C25.8399 27.0235 25.7654 26.9573 25.6909 26.8911Z" fill="#146849"/>
<path d="M30.0229 35.0963C29.684 35.0963 29.3935 34.8039 29.3935 34.4627V32.952C29.3935 32.3672 28.9578 31.9286 28.3769 31.9286H19.1304C18.5495 31.9286 18.1138 32.3672 18.1138 32.952V34.5114C18.1138 34.8526 17.8233 35.145 17.4844 35.145C17.1456 35.145 16.8551 34.8526 16.8551 34.5114V33.0007C16.8551 31.7336 17.8717 30.7102 19.1304 30.7102H28.3769C29.6356 30.7102 30.6522 31.7336 30.6522 33.0007V34.5114C30.6522 34.8526 30.3617 35.0963 30.0229 35.0963Z" fill="#146849"/>
<path d="M24.0245 11C14.6537 11 7 18.6934 7 28.1128C7 30.0362 7.34343 31.9595 7.93218 33.7349C8.0303 34.0801 8.4228 34.2281 8.71717 34.1294C9.06061 34.0308 9.20779 33.6363 9.10967 33.3404C8.61905 31.8609 8.32468 30.3321 8.22655 28.7539H11.1703C11.5137 28.7539 11.8081 28.458 11.8081 28.1128C11.8081 27.7676 11.5137 27.4717 11.1703 27.4717H8.22655C8.37374 23.5264 9.94372 19.9756 12.4949 17.3125L14.7027 19.5317C14.8499 19.6797 14.9971 19.729 15.1443 19.729C15.2915 19.729 15.4877 19.6797 15.5859 19.5317C15.8312 19.2852 15.8312 18.8906 15.5859 18.6441L13.3781 16.4248C16.0274 14.0083 19.5108 12.4795 23.3377 12.3315V15.2905C23.3377 15.6357 23.632 15.9316 23.9755 15.9316C24.3189 15.9316 24.6623 15.6357 24.6623 15.2412V12.2822C28.4892 12.4302 31.9726 13.959 34.6219 16.3755L32.4141 18.5947C32.1688 18.8413 32.1688 19.2359 32.4141 19.4824C32.5613 19.6304 32.7085 19.6797 32.8557 19.6797C33.0029 19.6797 33.1991 19.6304 33.2973 19.4824L35.505 17.2632C38.0072 19.9263 39.5772 23.5264 39.7734 27.4224H36.8297C36.4863 27.4224 36.1919 27.7183 36.1919 28.0635C36.1919 28.4087 36.4863 28.7046 36.8297 28.7046H39.7734C39.7244 30.2827 39.43 31.8115 38.8903 33.291C38.7922 33.6363 38.9394 33.9815 39.2828 34.0801C39.3319 34.0801 39.43 34.1294 39.4791 34.1294C39.7244 34.1294 39.9697 33.9815 40.0678 33.6856C40.7056 31.8609 41 29.9868 41 28.0635C41 18.6934 33.3954 11 24.0245 11Z" fill="#146849"/>
</svg>
