<svg width="48" height="48" viewBox="0 0 48 48" fill="none" xmlns="http://www.w3.org/2000/svg">
<path d="M18 45V10C18 9.44772 18.4477 9 19 9L24 9L29 9C29.5523 9 30 9.44772 30 10V45" stroke="#146849"/>
<path d="M2 45V29C2 28.4477 2.44772 28 3 28H8H13C13.5523 28 14 28.4477 14 29V45" stroke="#146849"/>
<path d="M33 45V34C33 33.4477 33.4477 33 34 33L39 33L44 33C44.5523 33 45 33.4477 45 34V45" stroke="#146849"/>
<path d="M23.244 19.3898L20.7625 14.9438C20.7418 14.9024 20.7625 14.861 20.8038 14.861H22.4375C22.4582 14.861 22.4788 14.8817 22.4788 14.9024L23.3267 19.3484C23.3474 19.4105 23.2853 19.4311 23.244 19.3898Z" fill="#146849"/>
<path d="M23.8438 19.2658L23.058 13.062C23.058 13.0207 23.0787 13 23.0993 13H24.6916C24.733 13 24.7537 13.0207 24.733 13.062L23.9472 19.2658C23.9472 19.3279 23.8645 19.3279 23.8438 19.2658Z" fill="#146849"/>
<path d="M27.0282 14.9231L24.5467 19.3898C24.526 19.4311 24.4433 19.4105 24.4433 19.3484L25.2912 14.9024C25.2912 14.8817 25.3118 14.861 25.3325 14.861H26.9662C27.0075 14.861 27.0489 14.9024 27.0282 14.9231Z" fill="#146849"/>
</svg>
