<?xml version="1.0" encoding="UTF-8"?> <svg xmlns="http://www.w3.org/2000/svg" width="41" height="41" viewBox="0 0 41 41" fill="none"><path d="M36.6815 4.0305C34.2153 1.56408 30.9046 0.126294 27.4187 0.00793225C23.9329 -0.11043 20.5322 1.09947 17.9044 3.39292C15.2767 5.68638 13.618 8.89222 13.2639 12.362C12.9097 15.8318 13.8866 19.3067 15.9968 22.0837L13.7475 24.3313L13.3821 23.9659C13.2564 23.8406 13.0862 23.7702 12.9086 23.7702C12.7311 23.7702 12.5608 23.8406 12.4351 23.9659L0.890199 35.5092C0.320204 36.0794 0 36.8526 0 37.6588C0 38.465 0.320204 39.2382 0.890199 39.8084C1.46036 40.3784 2.23357 40.6986 3.03979 40.6986C3.846 40.6986 4.61921 40.3784 5.18938 39.8084L16.7326 28.2651C16.795 28.2029 16.8444 28.1289 16.8781 28.0475C16.9119 27.9661 16.9293 27.8789 16.9293 27.7908C16.9293 27.7027 16.9119 27.6154 16.8781 27.534C16.8444 27.4527 16.795 27.3787 16.7326 27.3165L16.3756 26.9594L18.6199 24.7101C21.2701 26.7207 24.5583 27.7043 27.8773 27.4794C31.1962 27.2545 34.3217 25.8363 36.6764 23.4866C39.2527 20.9048 40.6999 17.4068 40.7009 13.7596C40.7018 10.1123 39.2564 6.61357 36.6815 4.0305ZM4.24072 38.8614C3.92184 39.1792 3.48999 39.3576 3.03979 39.3576C2.58959 39.3576 2.15775 39.1792 1.83887 38.8614C1.52015 38.5426 1.34109 38.1104 1.34109 37.6596C1.34109 37.2089 1.52015 36.7766 1.83887 36.4579L12.9011 25.3873L15.3046 27.7908L4.24072 38.8614ZM14.6962 25.285L16.8634 23.1178C16.9807 23.2435 17.098 23.3693 17.2204 23.4916C17.3427 23.614 17.4701 23.7313 17.5958 23.8486L15.4353 26.0108L14.6962 25.285ZM35.7328 22.5446C33.5403 24.7306 30.6114 26.0203 27.5186 26.1616C24.4258 26.3029 21.3915 25.2858 19.0088 23.3089L17.3913 21.6898C15.8547 19.8368 14.8896 17.5772 14.6136 15.1858C14.3375 12.7944 14.7624 10.3743 15.8365 8.21996C16.9106 6.06561 18.5877 4.26983 20.6636 3.05109C22.7396 1.83235 25.125 1.24319 27.5297 1.35526C29.9344 1.46733 32.2546 2.27581 34.2082 3.68234C36.1619 5.08888 37.6646 7.03285 38.5337 9.27776C39.4028 11.5227 39.6007 13.9718 39.1035 16.3271C38.6062 18.6825 37.4352 20.8426 35.7328 22.5446Z" fill="#146849"></path><path d="M31.0819 12.678L31.192 12.5207H31H27.703L28.9235 6.01845L28.7398 5.94809L22.9145 15.5396L22.8223 15.6915H23H26.1297L24.3407 21.9726L24.5188 22.0573L31.0819 12.678ZM24.2652 14.8549L27.4945 9.54229L26.7853 13.1958L26.7622 13.3149H26.8835H29.644L26.2096 18.269L27.1351 14.982L27.1709 14.8549H27.0388H24.2652Z" fill="#146849" stroke="#146849" stroke-width="0.2"></path></svg> 