<svg width="26" height="21" viewBox="0 0 26 21" fill="none" xmlns="http://www.w3.org/2000/svg">
<path fill-rule="evenodd" clip-rule="evenodd" d="M9.83479 20.4106C9.87949 20.4561 10.0136 20.4561 10.0583 20.4561C10.1924 20.4561 10.3265 20.4106 10.3712 20.2742L18.7756 8.81883C18.865 8.637 18.865 8.45517 18.8203 8.27334C18.7756 8.13696 18.5968 8.00059 18.418 8.00059H13.9476L15.5122 0.590953C15.5122 0.318205 15.4228 0.181832 15.244 0.0454579C15.1993 0 15.1099 0 15.0652 0C14.931 0 14.7969 0.0454579 14.6628 0.227289L7.10784 11.7736C7.06314 11.8645 7.06314 12.0463 7.10784 12.2282C7.15255 12.3191 7.33136 12.4555 7.51018 12.4555H11.8912L9.61127 19.8196C9.56657 20.0469 9.65597 20.2742 9.83479 20.4106ZM17.5239 8.95521L11.7124 16.9103L11.5782 16.8194L13.0535 12.0918C13.125 11.9827 13.0821 11.8736 13.0392 11.7645C13.0284 11.7372 13.0177 11.71 13.0088 11.6827C12.8747 11.5463 12.7853 11.5008 12.6064 11.5008H8.49367L13.8581 3.22751L14.037 3.27297L12.9641 8.36425C12.9641 8.54609 12.9641 8.68246 13.0535 8.77337C13.1429 8.90975 13.277 8.95521 13.4111 8.95521H17.5239ZM2.63752 18.1377C1.207 18.1377 0 16.9104 0 15.3648V3.90936C0 2.36379 1.207 1.13643 2.63752 1.13643H10.2819C10.5054 1.13643 10.7289 1.36372 10.7289 1.59101C10.7289 1.86375 10.5054 2.04559 10.2819 2.04559H2.63752C1.69874 2.04559 0.938779 2.86383 0.938779 3.86391V15.3193C0.938779 16.3194 1.69874 17.1376 2.63752 17.1376H7.01849C7.24201 17.1376 7.46553 17.3649 7.46553 17.5922C7.46553 17.8195 7.24201 18.0468 7.01849 18.0468H2.63752V18.1377ZM15.7357 18.1377C15.5121 18.1377 15.2886 17.9104 15.2886 17.6831C15.2886 17.4558 15.5121 17.2285 15.7357 17.2285H21.1895C22.1283 17.2285 22.8883 16.4103 22.8883 15.4102V14.2737C22.8883 14.0464 23.1118 13.8192 23.3353 13.8192H24.4082C24.7658 13.8192 25.0341 13.5464 25.0341 13.1827V6.18222C25.0341 5.81855 24.7658 5.5458 24.4082 5.5458H23.3353C23.1118 5.5458 22.8883 5.31851 22.8883 5.09122V3.90932C22.8883 2.90924 22.1283 2.091 21.1895 2.091H17.8814C17.6579 2.091 17.4344 1.86371 17.4344 1.63642C17.4344 1.40913 17.6579 1.18184 17.8814 1.18184H21.1448C22.5754 1.18184 23.7824 2.4092 23.7824 3.95477V4.54573H24.4082C25.2576 4.54573 25.9729 5.27306 25.9729 6.18222V13.0918C25.9729 13.9555 25.3023 14.7283 24.4082 14.7283H23.7824V15.3647C23.7824 16.9103 22.5754 18.1377 21.1448 18.1377H15.7357Z" fill="#146849"/>
</svg>
