<?xml version="1.0" encoding="UTF-8"?> <svg xmlns="http://www.w3.org/2000/svg" width="49" height="42" viewBox="0 0 49 42" fill="none"><path d="M25.4 41.6302C23.5 41.6302 21.6 41.5302 19.7 41.4302C18 41.2302 16.4 40.7302 14.9 39.9302L14.3 39.5302C13.1 38.7302 10.6 37.2302 9.89999 37.2302H5.89999C5.49999 37.2302 5.19998 36.9302 5.19998 36.5302V22.6302L1.39999 21.6302V38.3302L3.10001 37.8302L3.5 39.2302L0.899994 39.9302C0.699994 40.0302 0.399988 39.9302 0.299988 39.8302C0.0999878 39.7302 0 39.4302 0 39.2302V20.7302C0 20.5302 0.0999878 20.3302 0.299988 20.1302C0.499988 20.0302 0.699994 19.9302 0.899994 20.0302L6.19998 21.3302C6.49998 21.4302 6.79998 21.7302 6.69998 22.0302V24.2302C8.29998 23.3302 10.1 22.7302 12 22.5302H12.2C14.5 22.3302 16.8 22.5302 19 23.0302C19.9 23.2302 21.2 23.5302 22.6 23.8302C25.3 24.2302 27.9 24.8302 30.5 25.6302L30.8 25.7302C32.1 26.1302 33.1 27.3302 33.1 28.7302C33.1 29.2302 32.9 29.7302 32.5 30.1302C31.6 30.7302 30.6 31.0302 29.5 30.8302H29.4C28.9 30.8302 24.5 30.4302 21.5 30.2302C24.7 32.2302 27.8 34.0302 28.4 34.0302C28.8 34.0302 29.3 34.0302 30 34.0302C31.6 34.1302 33.3 34.1302 34.9 34.0302C37.1 33.5302 39.3 32.9302 41.5 32.2302C43 31.7302 44.3 31.3302 45.4 31.0302C45.9 30.9302 46.5 31.0302 47 31.3302C47.6 31.7302 48 32.2302 48.1 32.9302C48.4 34.5302 48.1 35.5302 45.1 36.7302C42.9 37.6302 32.5 41.5302 31 41.6302C29.3 41.6302 27.4 41.6302 25.4 41.6302ZM6.60001 35.7302H9.79999C10.9 35.7302 12.8 36.8302 15 38.2302L15.6 38.6302C16.9 39.3302 18.3 39.8302 19.8 39.9302C23.4 40.2302 26.9 40.2302 30.5 40.0302C31.6 39.9302 40.9 36.6302 44.2 35.2302C46.6 34.2302 46.5 33.7302 46.3 33.0302C46.2 32.7302 46.1 32.5302 45.9 32.4302C45.8 32.3302 45.6 32.3302 45.4 32.3302C44.4 32.6302 43 33.0302 41.6 33.4302C39.4 34.2302 37.1 34.8302 34.8 35.3302C33.1 35.4302 31.4 35.5302 29.7 35.4302H28.2C26.8 35.4302 20.7 31.5302 18.1 29.8302C17.8 29.6302 17.7 29.3302 17.8 29.0302C17.9 28.7302 18.2 28.5302 18.6 28.5302C22.1 28.8302 28.8 29.3302 29.4 29.3302H29.5C29.9 29.3302 31 29.4302 31.4 29.0302C31.5 28.9302 31.5 28.8302 31.5 28.6302C31.5 27.7302 30.9 27.4302 30 27.0302L29.7 26.9302C29.2 26.7302 25 25.8302 22.2 25.2302L18.6 24.5302C16.5 24.0302 14.3 23.8302 12.2 24.0302H12C10.2 24.1302 7.59998 25.4302 6.69998 25.9302L6.60001 35.7302Z" fill="#146849"></path><path d="M17.0488 20.4059V8.99072H10.0488V20.4059" stroke="#146849" stroke-width="1.6"></path><path d="M28.4844 21.9003V4.42432H21.4844V20.9065" stroke="#146849" stroke-width="1.6"></path><path d="M39.9199 29.8891V1H32.9199V22.8941" stroke="#146849" stroke-width="1.6"></path></svg> 