<?xml version="1.0" encoding="UTF-8"?> <svg xmlns="http://www.w3.org/2000/svg" width="97" height="97" viewBox="0 0 97 97" fill="none"><path d="M78.2063 38.0067L76.4004 38.6462C77.9626 43.1091 78.435 47.8809 77.7784 52.5635C77.1217 57.2461 75.3549 61.7039 72.6254 65.5649C69.8959 69.426 66.2827 72.5785 62.0873 74.7595C57.8919 76.9405 53.2358 78.0867 48.5074 78.1026H48.4307C43.7968 78.0958 39.2295 76.9984 35.0983 74.8993C30.967 72.8002 27.3878 69.7582 24.6501 66.0195H29.1312V64.1034H21.376V71.8754H23.292V67.4182C26.2148 71.3247 30.007 74.4971 34.3682 76.6841C38.7294 78.8712 43.5399 80.0128 48.4188 80.0187H48.5074C53.546 80.0129 58.5098 78.7997 62.983 76.4806C67.4561 74.1615 71.3084 70.8041 74.2169 66.6898C77.1254 62.5754 79.0055 57.8239 79.6996 52.8334C80.3937 47.8428 79.8816 42.7586 78.2063 38.0067Z" fill="#146849"></path><path d="M48.1576 18.9179C52.6427 18.8674 57.0808 19.8363 61.1369 21.7515C65.1929 23.6667 68.761 26.4781 71.5718 29.9736H67.1721V31.8897H74.9201V24.1176H73.0041V28.6994C70.0095 25.0004 66.217 22.0267 61.9105 20.001C57.6039 17.9753 52.8949 16.95 48.136 17.0019C30.9705 17.1983 17 31.3268 17 48.4995C16.9949 52.0809 17.6016 55.6368 18.7939 59.0139L20.5998 58.3744C19.4833 55.2021 18.9163 51.8625 18.9233 48.4995C18.9161 32.3711 32.0363 19.1024 48.1576 18.9179Z" fill="#146849"></path><path d="M60.3096 44.828H50.3892L54.1279 26.8649L36.8379 52.9233H46.3056L40.8329 70.4074L60.3096 44.828ZM40.4089 51.0049L50.2287 36.2105L48.0372 46.7488H56.4487L45.9272 60.566L48.9186 51.0096L40.4089 51.0049Z" fill="#146849"></path></svg> 