<svg width="64" height="64" viewBox="0 0 64 64" fill="none" xmlns="http://www.w3.org/2000/svg">
<path fill-rule="evenodd" clip-rule="evenodd" d="M32.2809 16.9995C31.8769 16.9995 31.4794 17.2643 31.2815 17.6557L28.2765 23.5348L21.6399 24.525C21.1774 24.5904 20.8413 24.855 20.7081 25.3158C20.6431 25.5406 20.6257 25.7533 20.6677 25.9524C20.7098 26.1521 20.811 26.3341 20.9762 26.4973L25.7342 31.1388L24.6699 37.6988L24.6697 37.6998C24.6031 38.1605 24.8035 38.555 25.1328 38.8155L25.1401 38.8197C25.4694 39.0151 25.9327 39.0816 26.3325 38.884L32.3437 35.851L38.2963 38.886L38.3009 38.8875C38.3395 38.9003 38.3755 38.913 38.4107 38.9255L38.4137 38.9266C38.545 38.973 38.6636 39.0151 38.8237 39.0151C39.0216 39.0151 39.2828 38.9509 39.4176 38.8842L39.4235 38.8813L39.4287 38.8772C39.758 38.6168 39.9587 38.2227 39.8922 37.762L38.8277 31.201L43.586 26.5598L43.5906 26.5541C43.8522 26.2309 43.9864 25.8371 43.8538 25.378C43.7206 24.9172 43.3843 24.6526 42.9217 24.5872L36.2855 23.597L33.2823 17.6596C33.2131 17.4582 33.0611 17.2938 32.8804 17.1801C32.6984 17.0656 32.4826 16.9995 32.2809 16.9995ZM32.2109 18.0852C32.2351 18.0374 32.2639 18.0263 32.2809 18.0263C32.2979 18.0263 32.3268 18.0375 32.351 18.0852L35.5739 24.5196L42.7589 25.5787C42.7826 25.5993 42.8053 25.6131 42.8221 25.6234L42.8231 25.624C42.8318 25.6293 42.8378 25.633 42.8429 25.6366C42.8466 25.6392 42.8488 25.6414 42.85 25.6426L42.8504 25.643L42.8501 25.6459C42.8496 25.6493 42.8485 25.6553 42.8459 25.663C42.8408 25.6781 42.8298 25.7006 42.8061 25.724L37.6242 30.7839L38.8241 37.9006C38.8241 37.9143 38.824 37.9261 38.8233 37.9368C38.8227 37.9461 38.8217 37.9527 38.8206 37.9572H38.798L38.7802 37.9748L38.7768 37.9774C38.7734 37.9799 38.7691 37.9823 38.7648 37.9837C38.7608 37.985 38.7582 37.985 38.7562 37.9846C38.7547 37.9844 38.7498 37.9831 38.7418 37.9753L38.735 37.9685L32.2809 34.6534L25.8269 37.9685L25.82 37.9753C25.8121 37.9831 25.8071 37.9844 25.8057 37.9846C25.8037 37.985 25.801 37.985 25.797 37.9837C25.7928 37.9823 25.7885 37.9799 25.785 37.9774L25.7813 37.9745L25.7638 37.9572H25.7413C25.7402 37.9527 25.7392 37.9461 25.7386 37.9368C25.7379 37.9261 25.7378 37.9143 25.7377 37.9006L26.9376 30.7839L21.7373 25.706H21.715C21.7139 25.7015 21.7129 25.6949 21.7123 25.6856C21.7114 25.6735 21.7114 25.6601 21.7114 25.6441C21.7114 25.6336 21.7174 25.6177 21.7322 25.603C21.7469 25.5885 21.7634 25.5822 21.7747 25.5822H21.7794L28.9247 24.5196L32.2109 18.0852ZM36.9884 26.888L36.1814 26.0903L31.9664 30.257L29.1982 27.5207L28.3913 28.3184L31.3123 31.2058C31.4671 31.3589 31.6898 31.4276 31.9064 31.4361C32.1239 31.4447 32.3528 31.3937 32.5334 31.2866L32.5466 31.2787L36.9884 26.888Z" fill="#146849"/>
<path fill-rule="evenodd" clip-rule="evenodd" d="M15.75 12.6245C15.75 12.2793 16.0298 11.9995 16.375 11.9995H47.9375C48.2827 11.9995 48.5625 12.2793 48.5625 12.6245V33.562C48.5625 38.2565 44.279 46.5726 32.5473 51.3287C32.402 51.3876 32.2399 51.3898 32.093 51.3347C21.9931 47.5472 15.75 40.8234 15.75 33.562V12.6245ZM17 13.2495V33.562C17 40.0006 22.5453 46.353 32.3036 50.0779C43.5218 45.4462 47.3125 37.5906 47.3125 33.562V13.2495H17Z" fill="#146849"/>
</svg>
