<svg width="64" height="64" viewBox="0 0 64 64" fill="none" xmlns="http://www.w3.org/2000/svg">
<path d="M47.4545 28.8494V47.8494H48.6061V29.4252H50.3333C50.6788 29.4252 50.9091 29.1949 50.9091 28.8494V24.8191C50.9091 24.6464 50.7939 24.4736 50.6788 24.3585L33.7515 11.4039C33.003 10.8858 31.9667 10.8282 31.1606 11.4039L14.2909 24.3585C14.1182 24.4736 14.0606 24.6464 14.0606 24.8191V28.8494C14.0606 29.1949 14.2909 29.4252 14.6364 29.4252H16.3636V47.8494H17.5152V28.8494C17.5152 28.5039 17.2848 28.2736 16.9394 28.2736H15.2121V25.107L31.8515 12.3252C32.2545 12.0949 32.7727 12.0949 33.1182 12.3252L49.7576 25.107V28.2736H48.0303C47.6848 28.2736 47.4545 28.5039 47.4545 28.8494Z" fill="#146849"/>
<path fill-rule="evenodd" clip-rule="evenodd" d="M44.6059 47.734V27.2502C44.6059 26.2962 43.8883 25.5666 42.9499 25.5666H26.4832C25.5448 25.5666 24.8273 26.2962 24.8273 27.2502V47.734H25.9312V27.2502C25.9312 26.9135 26.152 26.689 26.4832 26.689H42.9499C43.2811 26.689 43.5019 26.9135 43.5019 27.2502V47.734H44.6059Z" fill="#146849"/>
<path fill-rule="evenodd" clip-rule="evenodd" d="M40.1189 42.4432H29.6015V41.1766H40.1189V42.4432Z" fill="#146849"/>
<path fill-rule="evenodd" clip-rule="evenodd" d="M40.1188 46.2674H29.6014V45.0007H40.1188V46.2674Z" fill="#146849"/>
<path fill-rule="evenodd" clip-rule="evenodd" d="M40.0122 31.476L37.3304 34.1578L34.6485 36.8396C34.4158 37.0724 34.0384 37.0724 33.8057 36.8396L30.5279 33.5618L31.3707 32.719L34.2271 35.5754L39.1694 30.6331L40.0122 31.476Z" fill="#146849"/>
</svg>
