<svg width="64" height="64" viewBox="0 0 64 64" fill="none" xmlns="http://www.w3.org/2000/svg">
<path d="M18.5716 52.8995L18.0022 51.7606L21.1658 50.1788L15.5346 41.1309L12.2444 42.776L11.675 41.6371L15.4713 39.739C15.7877 39.6124 16.104 39.6757 16.2938 39.992L22.621 50.1155C22.6843 50.2421 22.7476 50.4319 22.6843 50.6217C22.621 50.8115 22.4945 50.9381 22.3679 51.0013L18.5716 52.8995Z" fill="#146849"/>
<path d="M35.9714 42.2066H28.3788V40.9412H35.9714C37.047 40.9412 37.8695 40.1187 37.8695 39.043C37.8695 37.9674 37.047 37.1449 35.9714 37.1449H25.9744C25.2152 37.1449 24.3926 37.3347 23.7599 37.7776L17.3695 41.5106L16.7368 40.435L23.1272 36.702C24.013 36.1958 24.9621 35.9427 25.9744 35.9427H35.9714C37.743 35.9427 39.135 37.3347 39.135 39.1063C39.135 40.8779 37.743 42.2066 35.9714 42.2066Z" fill="#146849"/>
<path d="M22.1782 49.6724L21.5455 48.5968L23.8233 47.2681C24.5192 46.8252 25.2785 46.6354 26.101 46.6354H36.0347C36.794 46.6354 37.5532 46.5088 38.2492 46.1925L49.4483 41.4471C49.8912 41.2573 50.2709 40.8776 50.4607 40.4347C50.6505 39.9918 50.6505 39.4224 50.4607 38.9795C50.0811 38.0304 48.9422 37.5242 47.9931 37.9671L36.9205 42.2063L36.4776 41.0042L47.5502 36.765C49.132 36.1322 51.0301 36.8915 51.6629 38.4733C51.9792 39.2326 51.9792 40.1184 51.6629 40.8776C51.3465 41.6369 50.7138 42.2696 49.9545 42.586L38.7554 47.3314C37.8696 47.711 36.9838 47.9008 36.0347 47.9008H26.0378C25.4683 47.9008 24.8989 48.0274 24.3927 48.3437L22.1782 49.6724Z" fill="#146849"/>
<path fill-rule="evenodd" clip-rule="evenodd" d="M22.4312 24.4908C22.4312 19.2515 26.6827 15 31.922 15C37.1613 15 41.4128 19.2515 41.4128 24.4908C41.4128 29.73 37.1613 33.9815 31.922 33.9815C26.6827 33.9815 22.4312 29.73 22.4312 24.4908ZM33.1242 21.2006C33.1242 20.5341 32.5885 19.9985 31.922 19.9985C31.2555 19.9985 30.7198 20.5341 30.7198 21.2006C30.7198 21.8672 31.2555 22.4028 31.922 22.4028C32.5885 22.4028 33.1242 21.8672 33.1242 21.2006ZM28.4328 27.5737C29.288 28.5402 30.537 29.1476 31.922 29.1476C33.3066 29.1476 34.5554 28.5405 35.4107 27.5743C35.2219 27.4077 34.9189 27.224 34.5063 27.0515C33.6294 26.6852 32.5673 26.4965 31.922 26.4965C31.2722 26.4965 30.2102 26.6853 29.335 27.0514C28.923 27.2237 28.6209 27.4074 28.4328 27.5737ZM26.9868 27.7645C27.0115 26.1276 30.2769 25.2311 31.922 25.2311C33.5588 25.2311 36.8325 26.1276 36.8572 27.7645C35.7961 29.3602 33.9783 30.413 31.922 30.413C29.8657 30.413 28.0479 29.3602 26.9868 27.7645ZM35.594 27.7989C35.5937 27.7989 35.5929 27.7964 35.5924 27.7915C35.594 27.7964 35.5943 27.7988 35.594 27.7989ZM28.2517 27.791C28.2512 27.7958 28.2503 27.7982 28.2501 27.7983C28.2498 27.7983 28.25 27.7958 28.2517 27.791ZM23.6966 24.4908C23.6966 19.9504 27.3816 16.2654 31.922 16.2654C36.4624 16.2654 40.1473 19.9504 40.1473 24.4908C40.1473 29.0312 36.4624 32.7161 31.922 32.7161C27.3816 32.7161 23.6966 29.0312 23.6966 24.4908ZM34.3896 21.2006C34.3896 19.8352 33.2874 18.733 31.922 18.733C30.5566 18.733 29.4544 19.8352 29.4544 21.2006C29.4544 22.566 30.5566 23.6682 31.922 23.6682C33.2874 23.6682 34.3896 22.566 34.3896 21.2006Z" fill="#146849"/>
</svg>
