<?xml version="1.0" encoding="UTF-8"?> <svg xmlns="http://www.w3.org/2000/svg" width="48" height="49" viewBox="0 0 48 49" fill="none"><path d="M16.0379 22.1L10.2379 19.1L4.43789 22.1L5.53789 15.7L0.837891 11.2L7.23789 10.3L10.1379 4.5L13.0379 10.3L19.4379 11.2L14.7379 15.7L16.0379 22.1ZM10.3379 17.4L14.1379 19.4L13.4379 15.1L16.5379 12.1L12.2379 11.5L10.3379 7.60001L8.43789 11.5L4.13789 12.1L7.23789 15.1L6.53789 19.4L10.3379 17.4Z" fill="#146849"></path><path d="M29.4378 48.1H3.13783C2.13783 48 1.13783 47.5 0.637829 46.6C0.0378293 45.8 -0.162171 44.8 0.137829 43.9L7.73783 23.1L9.13783 23.6L1.43783 44.4C1.33783 44.9 1.43783 45.4 1.73783 45.8C2.03783 46.3 2.53783 46.6 3.13783 46.7H29.4378C30.5378 46.7 31.0378 45.6 31.3378 44.6L46.4378 3.70001C46.5378 3.30001 46.5378 2.9 46.2378 2.5C45.9378 2 45.3378 1.6 44.6378 1.5H18.8378C17.6378 1.7 16.7378 2.50001 16.4378 3.60001L15.5378 6.20001L14.1378 5.70001L15.1378 3.10001C15.6378 1.40001 17.1378 0.2 18.8378 0H44.6378C45.7378 0.1 46.8378 0.700006 47.4378 1.60001C47.9378 2.30001 48.0378 3.30001 47.7378 4.10001L32.7378 44.9C32.1378 47 30.9378 48.1 29.4378 48.1Z" fill="#146849"></path><path d="M39.5526 10.9371L27.918 41.9253L29.3223 42.4525L40.9569 11.4643L39.5526 10.9371Z" fill="#146849"></path></svg> 