<?xml version="1.0" encoding="UTF-8"?> <svg xmlns="http://www.w3.org/2000/svg" width="42" height="48" viewBox="0 0 42 48" fill="none"><path d="M20.6996 5.2002H10.0996V6.7002H20.6996V5.2002Z" fill="#146849"></path><path d="M18.1984 23.2998H10.3984V24.7998H18.1984V23.2998Z" fill="#146849"></path><path d="M41.4 24.7H35.9C35.5 24.7 35.2 24.4 35.2 24V3.29999C35.2 2.29999 34.4 1.5 33.4 1.5H7.7C6.7 1.5 5.89999 2.29999 5.89999 3.29999V20.2H4.5V3.29999C4.5 1.49999 6 0 7.8 0H33.4C35.2 0 36.7 1.49999 36.7 3.29999V23.3H41.5L41.4 24.7Z" fill="#146849"></path><path d="M33.4 48.0002H7.7C5.9 48.0002 4.39999 46.5002 4.39999 44.7002V24.7002H0V23.2002H5.2C5.6 23.2002 5.89999 23.5002 5.89999 23.9002V44.6002C5.89999 45.6002 6.7 46.4002 7.7 46.4002H33.3C34.3 46.4002 35.1 45.6002 35.1 44.6002V27.7002H36.5V44.6002C36.6 46.5002 35.2 48.0002 33.4 48.0002Z" fill="#146849"></path><path d="M31.0988 23.2998H23.2988V24.7998H31.0988V23.2998Z" fill="#146849"></path></svg> 