<svg width="64" height="64" viewBox="0 0 64 64" fill="none" xmlns="http://www.w3.org/2000/svg">
<path d="M19.1414 35.8093C19.2428 35.9285 19.3833 36 19.5394 36H20.2574C20.4446 36 20.6163 35.8967 20.71 35.7299L26.9298 24.5743C27.0234 24.4075 27.0234 24.2089 26.9298 24.0499C26.8361 23.8831 26.6644 23.7877 26.4771 23.7877H22.4581L26.4147 15.7707C26.4927 15.6039 26.4849 15.4132 26.3913 15.2543C26.2976 15.0953 26.126 15 25.9465 15H19.6955C19.477 15 19.2741 15.143 19.2038 15.3575L15.0287 27.5301C14.9741 27.689 14.9975 27.8717 15.0989 28.0148C15.1926 28.1578 15.3564 28.2372 15.5203 28.2372H20.2886L19.0243 35.3803C19.0009 35.5312 19.0399 35.6901 19.1414 35.8093ZM21.4201 27.8002C21.4436 27.6493 21.4045 27.4904 21.3109 27.3632C21.2094 27.244 21.069 27.1725 20.9129 27.1725H16.2539L20.0701 16.0568H25.1114L21.1548 24.0817C21.0768 24.2486 21.0846 24.4393 21.1782 24.5982C21.2719 24.7571 21.4436 24.8524 21.6231 24.8524H25.5875L20.2652 34.403L21.4201 27.8002Z" fill="#FD6500"/>
<mask id="mask0" style="mask-type:alpha" maskUnits="userSpaceOnUse" x="14" y="13" width="36" height="38">
<path d="M31.0965 27.006V13H49.6206V50.5H14.3796V38.3012H24.3194L31.0965 27.006Z" fill="#C4C4C4"/>
</mask>
<g mask="url(#mask0)">
<path fill-rule="evenodd" clip-rule="evenodd" d="M17.5425 16.1627H46.4581C47.2067 16.1627 47.8136 16.7695 47.8136 17.5181V22.0362C47.8136 22.7847 47.2067 23.3916 46.4581 23.3916H17.5425C16.7939 23.3916 16.187 22.7847 16.187 22.0362V17.5181C16.187 16.7695 16.7939 16.1627 17.5425 16.1627ZM14.8316 17.5181C14.8316 16.0209 16.0453 14.8072 17.5425 14.8072H46.4581C47.9553 14.8072 49.169 16.0209 49.169 17.5181V22.0362C49.169 23.5333 47.9553 24.747 46.4581 24.747H17.5425C16.0453 24.747 14.8316 23.5333 14.8316 22.0362V17.5181ZM46.458 28.8133H17.5424C16.7938 28.8133 16.187 29.4201 16.187 30.1687V33.7831C16.187 34.5317 16.7938 35.1386 17.5424 35.1386H46.458C47.2066 35.1386 47.8135 34.5317 47.8135 33.7831V30.1687C47.8135 29.4201 47.2066 28.8133 46.458 28.8133ZM17.5424 27.4578C16.0452 27.4578 14.8315 28.6715 14.8315 30.1687V33.7831C14.8315 35.2803 16.0452 36.494 17.5424 36.494H46.458C47.9552 36.494 49.1689 35.2803 49.1689 33.7831V30.1687C49.1689 28.6715 47.9552 27.4578 46.458 27.4578H17.5424ZM46.458 40.5602H17.5424C16.7938 40.5602 16.187 41.1671 16.187 41.9157V46.4337C16.187 47.1823 16.7938 47.7892 17.5424 47.7892H46.458C47.2066 47.7892 47.8135 47.1823 47.8135 46.4337V41.9157C47.8135 41.1671 47.2066 40.5602 46.458 40.5602ZM17.5424 39.2048C16.0452 39.2048 14.8315 40.4185 14.8315 41.9157V46.4337C14.8315 47.9309 16.0452 49.1446 17.5424 49.1446H46.458C47.9552 49.1446 49.1689 47.9309 49.1689 46.4337V41.9157C49.1689 40.4185 47.9552 39.2048 46.458 39.2048H17.5424Z" fill="#FD6500"/>
</g>
</svg>
