<svg width="64" height="64" viewBox="0 0 64 64" fill="none" xmlns="http://www.w3.org/2000/svg">
<path fill-rule="evenodd" clip-rule="evenodd" d="M38.4809 28C38.0643 28 37.6678 28.2701 37.4718 28.6573L34.8318 33.8223L29.0005 34.6924C28.5412 34.7575 28.1959 35.0268 28.0615 35.4918C27.9993 35.707 27.9802 35.9193 28.0232 36.1232C28.0666 36.3291 28.1706 36.5139 28.3345 36.6758L28.3354 36.6767L32.5154 40.7543L31.5803 46.5174L31.5799 46.5207C31.5128 46.985 31.7172 47.3809 32.0419 47.6377L32.052 47.6456L32.063 47.6521C32.3877 47.8447 32.848 47.9139 33.2517 47.7143L33.2531 47.7136L38.5364 45.0479L43.777 47.7199L43.7909 47.7245C43.8236 47.7353 43.8543 47.7462 43.8857 47.7573L43.8933 47.76L43.8933 47.76C44.0081 47.8006 44.1324 47.8447 44.2981 47.8447C44.4939 47.8447 44.7467 47.7832 44.8861 47.7143L44.9042 47.7054L44.9199 47.6929C45.2446 47.4362 45.4491 47.0403 45.382 46.5759L44.4465 40.8096L48.6345 36.7241L48.6416 36.7154C48.8955 36.4017 49.0332 36.0067 48.9003 35.5471C48.766 35.0821 48.4199 34.8127 47.9606 34.7475L42.1306 33.8776L39.496 28.669C39.4207 28.4583 39.2633 28.2929 39.086 28.1814C38.9047 28.0673 38.6881 28 38.4809 28ZM41.3193 34.945L38.4804 29.2773L35.5858 34.945L29.3034 35.8793L33.8754 40.3437L32.823 46.5855L38.4809 43.6793L44.1388 46.5855L43.0865 40.3437L47.6583 35.8795L41.3193 34.945Z" fill="#FD6500"/>
<path fill-rule="evenodd" clip-rule="evenodd" d="M36.3462 13.3269H18.6538C17.921 13.3269 17.3269 13.921 17.3269 14.6538V21.2885H37.6731V14.6538C37.6731 13.921 37.079 13.3269 36.3462 13.3269ZM17.3269 50.0385V22.6154H37.6731V26.1538H39V14.6538C39 13.1882 37.8118 12 36.3462 12H18.6538C17.1882 12 16 13.1882 16 14.6538V50.0385C16 51.5041 17.1882 52.6923 18.6538 52.6923H36.3462C37.8118 52.6923 39 51.5041 39 50.0385V48.2692H37.6731V50.0385C37.6731 50.7713 37.079 51.3654 36.3462 51.3654H18.6538C17.921 51.3654 17.3269 50.7713 17.3269 50.0385Z" fill="#FD6500"/>
</svg>
