<svg width="64" height="64" viewBox="0 0 64 64" fill="none" xmlns="http://www.w3.org/2000/svg">
<path d="M43.8642 24.7088L41.4518 22.3456L42.4029 21.4054L44.7202 23.6745L51.0929 17.375L52.0441 18.3152L45.4811 24.8028C45.0056 25.0849 44.2446 25.0849 43.8642 24.7088Z" fill="#FD6500"/>
<path d="M26.5551 30.8754C27.7396 30.9904 28.6424 31.3584 29.2634 31.9794C29.8844 32.5889 30.1949 33.3709 30.1949 34.3254C30.1949 35.0154 30.0224 35.6421 29.6774 36.2056C29.3324 36.7576 28.8149 37.2004 28.1249 37.5339C27.4464 37.8559 26.6126 38.0169 25.6236 38.0169C24.7611 38.0169 23.9331 37.8904 23.1396 37.6374C22.3461 37.3729 21.6964 37.0106 21.1904 36.5506L21.9839 35.1879C22.3979 35.5789 22.9269 35.8951 23.5709 36.1366C24.2149 36.3666 24.8991 36.4816 25.6236 36.4816C26.5206 36.4816 27.2164 36.2919 27.7109 35.9124C28.2169 35.5329 28.4699 35.0096 28.4699 34.3426C28.4699 33.6756 28.2226 33.1581 27.7281 32.7901C27.2336 32.4221 26.4861 32.2381 25.4856 32.2381H24.5196V31.0306L27.5556 27.3046H21.7424V25.8039H29.7119V26.9769L26.5551 30.8754ZM36.0472 38.0169C35.0927 38.0169 34.2417 37.7754 33.4942 37.2924C32.7582 36.7979 32.1774 36.0849 31.7519 35.1534C31.3264 34.2219 31.1137 33.1179 31.1137 31.8414C31.1137 30.5649 31.3264 29.4609 31.7519 28.5294C32.1774 27.5979 32.7582 26.8906 33.4942 26.4076C34.2417 25.9131 35.0927 25.6659 36.0472 25.6659C36.9902 25.6659 37.8297 25.9131 38.5657 26.4076C39.3132 26.8906 39.8997 27.5979 40.3252 28.5294C40.7507 29.4609 40.9634 30.5649 40.9634 31.8414C40.9634 33.1179 40.7507 34.2219 40.3252 35.1534C39.8997 36.0849 39.3132 36.7979 38.5657 37.2924C37.8297 37.7754 36.9902 38.0169 36.0472 38.0169ZM36.0472 36.4816C37.0132 36.4816 37.7837 36.0849 38.3587 35.2914C38.9452 34.4979 39.2384 33.3479 39.2384 31.8414C39.2384 30.3349 38.9452 29.1849 38.3587 28.3914C37.7837 27.5979 37.0132 27.2011 36.0472 27.2011C35.0697 27.2011 34.2877 27.5979 33.7012 28.3914C33.1262 29.1849 32.8387 30.3349 32.8387 31.8414C32.8387 33.3479 33.1262 34.4979 33.7012 35.2914C34.2877 36.0849 35.0697 36.4816 36.0472 36.4816Z" fill="#FD6500"/>
<path fill-rule="evenodd" clip-rule="evenodd" d="M49.2033 26.5483C50.4004 30.3255 50.3258 34.411 48.96 38.167C47.3829 42.5044 44.2038 46.0727 40.0765 48.1382C35.9492 50.2037 31.1874 50.6094 26.7702 49.2718C22.3531 47.9343 18.6162 44.9552 16.328 40.9471C14.0398 36.9389 13.3743 32.2065 14.4682 27.7227C15.5621 23.239 18.3323 19.3447 22.2093 16.8407C26.0862 14.3367 30.7752 13.4133 35.3121 14.2603C38.3267 14.8231 41.1219 16.1392 43.454 18.0545L44.3756 17.1505C41.8563 15.0511 38.8229 13.6096 35.5477 12.9981C30.688 12.0908 25.6654 13.08 21.5126 15.7621C17.3599 18.4443 14.3925 22.6156 13.2208 27.4184C12.049 32.2212 12.762 37.2904 15.2129 41.5836C17.6639 45.8769 21.6666 49.068 26.3981 50.5007C31.1296 51.9334 36.2302 51.4989 40.6512 49.2864C45.0721 47.074 48.4773 43.2518 50.1667 38.6058C51.7037 34.379 51.7142 29.7626 50.2222 25.5488L49.2033 26.5483Z" fill="#FD6500"/>
</svg>
