<svg width="64" height="64" viewBox="0 0 64 64" fill="none" xmlns="http://www.w3.org/2000/svg">
<path fill-rule="evenodd" clip-rule="evenodd" d="M16.4131 23.003C21.3777 14.4088 32.4083 11.4467 41.0025 16.4113C47.3438 20.066 50.8149 27.1165 49.8553 34.3757C49.8136 34.6761 49.5383 34.893 49.2295 34.8513C48.9291 34.8096 48.7122 34.5342 48.7539 34.2255C49.6551 27.4169 46.401 20.8002 40.4518 17.3709C32.3832 12.715 22.0368 15.4852 17.3893 23.5454C15.1364 27.4586 14.5357 32.006 15.7038 36.3615C16.872 40.7171 19.6672 44.3633 23.5721 46.6162C29.4212 50.0038 36.5969 49.5866 42.0037 45.6149L41.0525 45.0642C40.9023 44.9808 40.8022 44.8306 40.7772 44.6554L40.4935 42.4109C40.4768 42.2857 40.5018 42.1689 40.5602 42.0604L42.2958 39.0566C42.446 38.798 42.7881 38.6978 43.0551 38.8564L48.5871 42.0521C48.8457 42.2023 48.9375 42.5444 48.7873 42.8114L47.0518 45.8152C46.9934 45.9153 46.8932 45.9987 46.7848 46.0488L44.6988 46.9249C44.6321 46.9499 44.557 46.9666 44.4819 46.9666C44.3901 46.9666 44.29 46.9416 44.2065 46.8915L43.0384 46.2157C39.8009 48.7272 35.921 50.0121 32.0245 50.0121C28.9289 50.0121 25.825 49.2111 23.0047 47.5841C18.8411 45.181 15.8624 41.3011 14.6191 36.6536C13.3759 32.006 14.0184 27.1583 16.4131 23.003ZM42.98 40.0913L41.6199 42.4526L41.8452 44.2382L44.5319 45.7901L46.1924 45.0892L47.5524 42.7279L42.98 40.0913ZM29.5963 43.5038C29.4294 43.5038 29.2792 43.4287 29.1708 43.3036C29.0623 43.1784 29.0206 43.0115 29.0456 42.853L30.3973 35.3519H25.2992C25.124 35.3519 24.9488 35.2684 24.8486 35.1182C24.7402 34.968 24.7151 34.7761 24.7735 34.6092L29.2375 21.8264C29.3126 21.6011 29.5295 21.451 29.7632 21.451H36.4466C36.6385 21.451 36.8221 21.5511 36.9222 21.718C37.0223 21.8848 37.0307 22.0851 36.9472 22.2603L32.7169 30.6793H37.014C37.2142 30.6793 37.3978 30.7794 37.4979 30.9546C37.5981 31.1215 37.5981 31.3301 37.4979 31.5053L30.8479 43.2201C30.7477 43.3954 30.5642 43.5038 30.3639 43.5038H29.5963ZM31.4904 34.434C31.5905 34.5675 31.6322 34.7344 31.6072 34.8929L30.3723 41.8267L36.0628 31.7974H31.8241C31.6322 31.7974 31.4486 31.6972 31.3485 31.5304C31.2484 31.3635 31.24 31.1632 31.3235 30.988L35.5538 22.5607H30.1637L26.0835 34.2338H31.0648C31.2317 34.2338 31.3819 34.3089 31.4904 34.434ZM49.3294 37.4462C49.0624 37.296 48.7203 37.3794 48.5701 37.6465L47.4937 39.5155C47.3435 39.7825 47.427 40.1246 47.694 40.2748C47.7774 40.3248 47.8775 40.3499 47.9693 40.3499C48.1612 40.3499 48.3448 40.2497 48.4533 40.0745L49.5296 38.2055C49.6882 37.9385 49.5964 37.6047 49.3294 37.4462ZM44.8238 37.9801L45.9001 36.1111C46.0587 35.8441 46.3924 35.7523 46.6594 35.9109C46.9264 36.0611 47.0099 36.4032 46.8597 36.6702L45.7833 38.5392C45.6748 38.7144 45.4913 38.8145 45.2994 38.8145C45.2076 38.8145 45.1158 38.7895 45.024 38.7394C44.757 38.5892 44.6736 38.2471 44.8238 37.9801Z" fill="#222244"/>
</svg>
