<?xml version="1.0" encoding="UTF-8"?> <svg xmlns="http://www.w3.org/2000/svg" width="64" height="64" viewBox="0 0 64 64" fill="none"><path d="M31.8458 52.5833L25.1933 48.4249C24.2344 47.8308 22.5563 46.5239 20.2789 44.6823C17.3422 42.2467 15.6641 38.7418 15.6641 34.9992V15.8113H16.2634C16.3833 15.8113 25.9125 15.9301 31.5462 12.9004L31.8458 12.7222L32.1455 12.9004C37.7791 15.9301 47.3084 15.8113 47.4282 15.8113H48.0276V35.0586C48.0276 38.8012 46.3495 42.3061 43.4727 44.6823C41.1953 46.5833 39.5172 47.8308 38.5582 48.4249L31.8458 52.5833ZM16.8627 16.9994V34.9992C16.8627 38.3854 18.361 41.5339 20.998 43.6725C23.2155 45.514 24.8937 46.7615 25.7926 47.3556L31.8458 51.1575L37.899 47.415C38.798 46.8209 40.4761 45.5734 42.6936 43.7319C45.3306 41.5933 46.8289 38.3854 46.8289 35.0586V16.9994C44.6114 16.9994 37 16.7023 31.8458 14.0885C26.6916 16.7023 19.0802 16.9994 16.8627 16.9994Z" fill="#222244"></path><path d="M27.0914 42.2377C27.0914 42.5901 27.0914 44.9628 27.0914 44.9628C27.0914 45.3975 27.44 45.7498 27.87 45.7498H36.1432C36.5732 45.7498 36.9218 45.3975 36.9218 44.9628C36.9218 44.9628 36.9218 43.4476 36.9218 42.226C36.9218 41.3685 37.9559 40.2526 38.9552 39.1602C40.2683 37.7272 41.7672 36.118 41.7672 34.2268V26.4156C41.7672 25.981 41.4186 25.6287 40.9887 25.6287H39.2573C38.8274 25.6287 38.4788 25.981 38.4788 26.4156C38.4788 26.8503 38.8274 27.2026 39.2573 27.2026H40.2102V34.2503C40.2102 35.5189 38.9901 36.8345 37.8165 38.1148C36.5615 39.4774 35.3647 40.7695 35.3647 42.2495C35.3647 42.9073 35.3647 43.6473 35.3647 44.1993H28.6369C28.6369 43.4711 28.6369 42.4727 28.6369 42.2612C28.6369 40.7812 27.4517 39.4891 26.1851 38.1266C25.0115 36.8462 23.7914 35.5307 23.7914 34.2621V27.2144H27.4517C27.8816 27.2144 28.2302 26.8268 28.2302 26.3922V19.2035C28.2302 18.7689 27.8816 18.4165 27.4517 18.4165C27.0217 18.4165 26.6731 18.7689 26.6731 19.2035V25.6404H23.0129C22.583 25.6404 22.2344 25.9928 22.2344 26.4274V34.2503C22.2344 36.1297 23.7217 37.7507 25.0464 39.1837C26.0689 40.2644 27.1031 41.3803 27.0914 42.2377Z" fill="#222244"></path><path d="M34.8306 34.7081C34.8306 34.6443 34.8306 34.5168 34.7737 34.453C34.7737 34.453 34.7737 34.4531 34.7737 34.3893C34.7168 34.3255 34.7168 34.198 34.6599 34.1342C34.603 34.0705 34.546 34.0067 34.4891 34.0067L32.2694 32.6677L34.6599 30.0534C34.9444 29.7345 34.9444 29.2244 34.6599 28.9056C34.3753 28.5868 33.92 28.5868 33.6354 28.9056L30.505 32.2851C30.3343 32.4764 30.2773 32.7314 30.2773 32.9865C30.3343 33.2415 30.4481 33.4966 30.6758 33.5604L32.8955 34.8994L30.505 37.5137C30.2204 37.8325 30.2204 38.3426 30.505 38.6614C30.6188 38.8527 30.8465 38.9165 31.0173 38.9165C31.188 38.9165 31.3587 38.8527 31.5295 38.6614L34.6599 35.282C34.7168 35.2182 34.7737 35.1544 34.7737 35.0907C34.7737 35.0907 34.7737 35.0907 34.7737 35.0269C34.7737 35.0269 34.7737 35.0269 34.7737 34.9632C34.8306 34.8994 34.8306 34.8356 34.8306 34.7081Z" fill="#222244"></path><path d="M30.2637 27.1959H36.3395C36.755 27.1959 37.0919 26.8086 37.0919 26.3743V19.2029C37.0919 18.7686 36.755 18.4165 36.3395 18.4165C35.9239 18.4165 35.587 18.7686 35.587 19.2029V25.6348H30.2525C29.8369 25.6348 29.5 25.987 29.5 26.4212C29.5225 26.8438 29.8594 27.1959 30.2637 27.1959Z" fill="#222244"></path></svg> 