<svg width="50" height="39" viewBox="0 0 50 39" fill="none" xmlns="http://www.w3.org/2000/svg">
<path fill-rule="evenodd" clip-rule="evenodd" d="M18.6226 38.0075C18.7073 38.0921 18.9612 38.0921 19.0459 38.0921C19.2998 38.0921 19.5538 38.0075 19.6384 37.7535L35.5524 16.4219C35.7217 16.0833 35.7217 15.7447 35.6371 15.4061C35.5524 15.1522 35.2138 14.8982 34.8753 14.8982H26.4103L29.3731 1.10044C29.3731 0.592544 29.2038 0.338596 28.8652 0.0846491C28.7805 0 28.6112 0 28.5266 0C28.2726 0 28.0187 0.0846491 27.7647 0.423246L13.459 21.9241C13.3744 22.0934 13.3744 22.432 13.459 22.7706C13.5437 22.9399 13.8823 23.1939 14.2209 23.1939H22.5165L18.1994 36.907C18.1147 37.3303 18.284 37.7535 18.6226 38.0075ZM33.1823 16.6759L22.1779 31.4895L21.9239 31.3202L24.7174 22.5167C24.8528 22.3135 24.7715 22.1103 24.6903 21.9072C24.67 21.8564 24.6496 21.8056 24.6327 21.7548C24.3788 21.5009 24.2095 21.4162 23.8709 21.4162H16.0831L26.241 6.01009L26.5796 6.09474L24.5481 15.5754C24.5481 15.914 24.5481 16.168 24.7174 16.3373C24.8867 16.5912 25.1406 16.6759 25.3946 16.6759H33.1823ZM4.9943 33.7751C2.28553 33.7751 0 31.4895 0 28.6115V7.2799C0 4.40183 2.28553 2.1163 4.9943 2.1163H19.4693C19.8925 2.1163 20.3158 2.53955 20.3158 2.96279C20.3158 3.47069 19.8925 3.80928 19.4693 3.80928H4.9943C3.21667 3.80928 1.77763 5.33297 1.77763 7.19525V28.5268C1.77763 30.3891 3.21667 31.9128 4.9943 31.9128H13.2899C13.7132 31.9128 14.1364 32.336 14.1364 32.7593C14.1364 33.1825 13.7132 33.6058 13.2899 33.6058H4.9943V33.7751ZM29.7964 33.7749C29.3731 33.7749 28.9499 33.3517 28.9499 32.9284C28.9499 32.5052 29.3731 32.0819 29.7964 32.0819H40.1235C41.9012 32.0819 43.3402 30.5583 43.3402 28.696V26.5797C43.3402 26.1565 43.7635 25.7333 44.1867 25.7333H46.2183C46.8955 25.7333 47.4034 25.2254 47.4034 24.5482V11.5122C47.4034 10.835 46.8955 10.3271 46.2183 10.3271H44.1867C43.7635 10.3271 43.3402 9.90387 43.3402 9.48063V7.27975C43.3402 5.41747 41.9012 3.89379 40.1235 3.89379H33.8595C33.4363 3.89379 33.013 3.47054 33.013 3.04729C33.013 2.62405 33.4363 2.2008 33.8595 2.2008H40.0389C42.7477 2.2008 45.0332 4.48633 45.0332 7.3644V8.46484H46.2183C47.8266 8.46484 49.181 9.81922 49.181 11.5122V24.3789C49.181 25.9872 47.9113 27.4262 46.2183 27.4262H45.0332V28.6113C45.0332 31.4894 42.7477 33.7749 40.0389 33.7749H29.7964Z" fill="#FD6500"/>
</svg>
