<svg width="32" height="27" viewBox="0 0 32 27" fill="none" xmlns="http://www.w3.org/2000/svg">
<path d="M29.2965 24.1873C29.2965 25.0548 28.5624 25.7889 27.6948 25.7889H2.53592C1.66837 25.7889 0.934285 25.0548 0.934285 24.1873V5.96873C0.934285 5.10118 1.60163 4.36711 2.46918 4.36711H10.7443V3.36609H2.53592C1.13449 3.36609 0 4.50057 0 5.90199V24.1873C0 25.5887 1.13449 26.7232 2.53592 26.7232H27.6948C29.0963 26.7232 30.2308 25.5887 30.2308 24.1873V20.3167H29.2297V24.1873H29.2965Z" fill="#FD6500"/>
<path d="M30.2649 11.9835V5.77716C30.2649 4.37573 29.1304 3.24125 27.729 3.24125H26.6612L25.3266 0.638599C25.0596 0.104723 24.3923 -0.162217 23.8584 0.104721L7.30822 6.71145H3.9715V7.71247H29.3306V12.0502H23.6582C22.0566 11.9835 20.6551 13.2514 20.5884 14.8531C20.5217 16.4547 21.7896 17.8561 23.3913 17.9229C23.458 17.9229 23.5915 17.9229 23.6582 17.9229H30.1314C31.1992 17.9229 32 17.0553 32 16.0543V13.9188C32 12.851 31.2659 12.0502 30.2649 11.9835ZM24.2588 0.972272C24.3255 0.905537 24.459 0.972276 24.5257 1.03901L27.3286 6.64471H9.97761L24.2588 0.972272ZM28.3963 6.71145L27.1284 4.24227H27.729C28.5965 4.24227 29.3306 4.97635 29.3306 5.8439V6.71145H28.3963ZM31.0657 15.9875C31.0657 16.5214 30.6653 16.9218 30.1314 16.9218H23.6582C22.5904 17.122 21.5227 16.3212 21.3892 15.2535C21.189 14.1857 21.9898 13.118 23.0576 12.9845C23.2578 12.9845 23.458 12.9845 23.6582 12.9845H30.1314C30.6653 12.9845 31.0657 13.3849 31.0657 13.9188V15.9875Z" fill="#FD6500"/>
<path d="M23.6908 16.1124C24.2805 16.1124 24.7586 15.6344 24.7586 15.0447C24.7586 14.455 24.2805 13.9769 23.6908 13.9769C23.1011 13.9769 22.623 14.455 22.623 15.0447C22.623 15.6344 23.1011 16.1124 23.6908 16.1124Z" fill="#FD6500"/>
<path d="M10.3433 20.567H11.4432V16.7565H15.018V15.6958H11.4432V11.9246H10.3433V15.6958H6.76843V16.7565H10.3433V20.567Z" fill="#FD6500"/>
</svg>
