
<svg id="visual" viewBox="0 0 900 100" width="900" height="100" xmlns="http://www.w3.org/2000/svg" xmlns:xlink="http://www.w3.org/1999/xlink" version="1.1">
<path d="M0 89L29 89L29 75L58 75L58 83L87 83L87 75L116 75L116 77L145 77L145 96L174 96L174 73L203 73L203 86L232 86L232 83L261 83L261 69L290 69L290 90L319 90L319 94L348 94L348 92L377 92L377 76L406 76L406 74L435 74L435 98L465 98L465 63L494 63L494 83L523 83L523 74L552 74L552 61L581 61L581 87L610 87L610 75L639 75L639 89L668 89L668 85L697 85L697 73L726 73L726 75L755 75L755 87L784 87L784 80L813 80L813 91L842 91L842 79L871 79L871 64L900 64L900 76L900 101L900 101L871 101L871 101L842 101L842 101L813 101L813 101L784 101L784 101L755 101L755 101L726 101L726 101L697 101L697 101L668 101L668 101L639 101L639 101L610 101L610 101L581 101L581 101L552 101L552 101L523 101L523 101L494 101L494 101L465 101L465 101L435 101L435 101L406 101L406 101L377 101L377 101L348 101L348 101L319 101L319 101L290 101L290 101L261 101L261 101L232 101L232 101L203 101L203 101L174 101L174 101L145 101L145 101L116 101L116 101L87 101L87 101L58 101L58 101L29 101L29 101L0 101Z" fill="#222244" stroke-linecap="square" stroke-linejoin="miter"></path></svg>