<?xml version="1.0" encoding="UTF-8"?> <svg xmlns="http://www.w3.org/2000/svg" width="60" height="48" viewBox="0 0 60 48" fill="none"><path d="M53.9916 14.1825C53.8672 13.6848 53.494 13.436 53.1208 13.436L13.5598 13.3116C13.0622 13.3116 12.689 13.6848 12.689 14.058L6.96631 46.0303C6.96631 46.2791 6.96631 46.5279 7.21512 46.7768C7.33953 47.0256 7.71274 47.15 7.96155 47.15L58.9679 47.2744C59.2167 47.2744 59.4655 47.15 59.7143 46.9012C59.8387 46.6524 59.9631 46.4035 59.9631 46.1547L53.9916 14.1825ZM25.1295 26.001L24.7563 32.7189H11.1961L12.689 24.0105H39.4362L39.8094 30.8528L41.6755 30.7284L41.3023 24.0105H53.8672L55.3601 32.7189H26.498L26.8712 26.001H25.1295ZM53.6184 22.2688H41.3023L40.9291 15.3021H52.3744L53.6184 22.2688ZM14.3062 15.1777H25.6272L25.2539 20.6516L27.12 20.776L27.4932 15.1777H38.9386L39.3118 22.1444H13.0622L14.3062 15.1777ZM10.8229 34.585H24.5075L23.8855 45.4083H8.83239L10.8229 34.585ZM42.6707 45.4083L42.0487 36.4511L40.1826 36.5755L40.8046 45.4083H25.7516L26.3736 34.585H55.7333L57.7238 45.4083H42.6707Z" fill="#146849"></path><path d="M8.95622 18.039L9.95146 16.5461C7.83657 15.0532 7.21454 12.1919 8.70741 9.9526C10.2003 7.83771 13.0616 7.21568 15.3009 8.70855C16.1717 9.33058 16.7938 10.077 17.167 11.0722L18.9087 10.4502C17.789 6.96686 14.0568 5.10078 10.6979 6.22043C7.33894 7.34009 5.34845 11.0723 6.4681 14.4312C6.84132 15.9241 7.71216 17.1681 8.95622 18.039Z" fill="#146849"></path><path d="M13.5609 0H11.6948V4.22978H13.5609V0Z" fill="#146849"></path><path d="M4.84578 3.61032L3.52832 4.93188L5.99522 7.39113L7.31268 6.06956L4.84578 3.61032Z" fill="#146849"></path><path d="M20.3781 3.6613L17.9102 6.11951L19.2271 7.44163L21.695 4.98342L20.3781 3.6613Z" fill="#146849"></path><path d="M4.22979 11.694H0V13.5601H4.22979V11.694Z" fill="#146849"></path><path d="M5.94538 17.9858L3.4917 20.4583L4.81625 21.7727L7.26992 19.3002L5.94538 17.9858Z" fill="#146849"></path></svg> 