<?xml version="1.0" encoding="UTF-8"?> <svg xmlns="http://www.w3.org/2000/svg" width="48" height="48" viewBox="0 0 48 48" fill="none"><path d="M42.9392 47.4H41.5392V24.2C41.5392 23.8 41.8392 23.5 42.2392 23.5H45.6392L24.1392 1.89999L2.63923 23.4H6.33923C6.73923 23.4 7.03923 23.7 7.03923 24.1V47.3H5.53923V24.8H0.739241C0.439241 24.8 0.139228 24.6 0.0392283 24.3C-0.0607717 24 0.0392405 23.7 0.239241 23.5L23.5392 0.199982C23.6392 0.0999817 23.8392 0 24.0392 0C24.2392 0 24.4392 0.0999817 24.5392 0.199982L47.7392 23.5C48.0392 23.8 48.0392 24.3 47.7392 24.5C47.6392 24.6 47.4392 24.7 47.2392 24.7H42.8392V47.4H42.9392Z" fill="#146849"></path><path d="M37.7391 47.4008H36.3391V19.8008H11.9391V47.4008H10.5391V18.3008H37.7391V47.4008Z" fill="#146849"></path><path d="M23.2391 28.5008L20.5391 25.9008L21.5391 24.9008L23.1391 26.4008L26.7391 22.8008L27.7391 23.9008L23.2391 28.5008Z" fill="#146849"></path><path d="M31.9375 31.1992H16.4375V32.6992H31.9375V31.1992Z" fill="#146849"></path><path d="M31.9375 36.4004H16.4375V37.9004H31.9375V36.4004Z" fill="#146849"></path><path d="M31.9375 41.5996H16.4375V43.0996H31.9375V41.5996Z" fill="#146849"></path></svg> 