<svg width="48" height="49" viewBox="0 0 48 49" fill="none" xmlns="http://www.w3.org/2000/svg">
<path d="M28.3669 19.5463C28.7797 19.5463 29.1143 19.1782 29.1143 18.7655V11.9498C29.1143 11.537 28.7797 11.2024 28.3669 11.2024C27.9542 11.2024 27.6196 11.537 27.6196 11.9498V18.0627H22.5106C22.0978 18.0627 21.7632 18.3974 21.7632 18.8101C21.7632 19.2228 22.0978 19.5575 22.5106 19.5575H28.3669V19.5463Z" fill="#146849"/>
<path d="M29.0926 36.0557C29.0926 36.0557 29.0926 34.9848 29.0926 33.8359C29.0926 32.9992 30.0073 31.9395 30.8885 30.9021C32.0486 29.5523 33.3649 28.0129 33.3649 26.2393V18.8101C33.3649 18.3973 33.0303 18.0627 32.6175 18.0627H31.1451C30.7323 18.0627 30.3977 18.3973 30.3977 18.8101C30.3977 19.2228 30.7323 19.5575 31.1451 19.5575H31.8813V26.2505C31.8813 27.4775 30.7993 28.7269 29.7619 29.9428C28.6575 31.2367 27.6089 32.4638 27.6089 33.847C27.6089 34.3936 27.6089 34.9179 27.6089 35.3195H26.5604C26.1476 35.3195 25.813 35.6541 25.813 36.0669C25.813 36.4796 26.1476 36.8143 26.5604 36.8143H28.3452C28.7579 36.7919 29.0926 36.4684 29.0926 36.0557Z" fill="#146849"/>
<path d="M23.9944 0.00268555C10.7646 0.00268555 0 10.7673 0 24.0083C0 37.2381 10.7646 48.0138 23.9944 48.0138C24.4072 48.0138 24.7418 47.6792 24.7418 47.2664V36.0557C24.7418 35.6429 24.4072 35.3083 23.9944 35.3083H20.3914C20.3914 34.7394 20.3914 34.0254 20.3914 33.8358C20.3914 32.4526 19.3428 31.2255 18.2384 29.9316C17.201 28.7157 16.119 27.4663 16.119 26.2393V19.5463H19.6328C20.0455 19.5463 20.3802 19.1781 20.3802 18.7654V11.9497C20.3802 11.537 20.0455 11.2023 19.6328 11.2023C19.2201 11.2023 18.8854 11.537 18.8854 11.9497V18.0626H15.3716C14.9589 18.0626 14.6242 18.3973 14.6242 18.81V26.2393C14.6242 28.0129 15.9405 29.5411 17.1006 30.902C17.9819 31.9283 18.8966 32.9992 18.8966 33.8358C18.8966 34.1705 18.8966 36.0557 18.8966 36.0557C18.8966 36.4684 19.2312 36.803 19.644 36.803H23.247V46.5079C11.1773 46.1175 1.48362 36.1784 1.48362 24.0083C1.48362 11.5927 11.5789 1.49746 23.9944 1.49746C36.41 1.49746 46.5052 11.5927 46.5052 24.0083C46.5052 34.9959 38.6633 44.3215 27.8541 46.1956C27.4525 46.2625 27.1736 46.6529 27.2517 47.0545C27.3186 47.4561 27.709 47.7238 28.1106 47.6569C39.6337 45.6713 48 35.721 48 24.0083C48 10.7673 37.2354 0.00268555 23.9944 0.00268555Z" fill="#146849"/>
<path d="M17.9038 22.7701C17.9038 23.1828 18.2385 23.5175 18.6512 23.5175H29.36C29.7727 23.5175 30.1074 23.1828 30.1074 22.7701C30.1074 22.3574 29.7727 22.0227 29.36 22.0227H18.6512C18.2385 22.0227 17.9038 22.3574 17.9038 22.7701Z" fill="#146849"/>
</svg>
