<svg xmlns="http://www.w3.org/2000/svg" viewBox="0 0 400 400"><defs><style>.cls-1,.cls-2,.cls-3,.cls-4{fill:none;stroke-linecap:round;stroke-linejoin:round;}.cls-1,.cls-4{stroke:#43b683;}.cls-1{stroke-width:3px;}.cls-2,.cls-3{stroke:#414042;}.cls-2{stroke-width:4.93px;}.cls-3{stroke-width:2.96px;}.cls-4{stroke-width:4.87px;}</style></defs><g id="ikony_duze" data-name="ikony duze"><polygon class="cls-1" points="196.77 115.74 207.88 84.2 191.07 84.2 203.59 56.52 219.84 56.52 205.51 76.58 221.87 76.58 196.77 115.74"/><polyline class="cls-2" points="211.62 332.2 211.62 250.68 261.85 164.13"/><polygon class="cls-2" points="90.69 332.2 314.04 332.2 314.04 250.68 263.81 164.13 140.92 164.13 90.69 250.68 90.69 332.2"/><line class="cls-2" x1="90.69" y1="250.68" x2="211.62" y2="250.68"/><line class="cls-2" x1="90.69" y1="332.2" x2="338.21" y2="332.2"/><line class="cls-2" x1="90.69" y1="332.2" x2="59.32" y2="332.2"/><polyline class="cls-3" points="94.26 222.65 78.32 250.68 78.32 273.27"/><line class="cls-3" x1="78.32" y1="281.32" x2="78.32" y2="292.27"/><line class="cls-3" x1="47.08" y1="332.2" x2="35.93" y2="332.2"/><line class="cls-3" x1="364.07" y1="332.2" x2="352.92" y2="332.2"/><line class="cls-3" x1="294.7" y1="201.31" x2="310.15" y2="226.15"/><rect class="cls-3" x="161.39" y="277.62" width="28.41" height="36.22"/><rect class="cls-3" x="108.35" y="277.62" width="28.41" height="36.22"/><polyline class="cls-3" points="254.13 332.2 254.13 278.34 269.58 278.34 269.58 332.2"/><rect class="cls-3" x="254.12" y="207.35" width="15.46" height="30.6"/><polyline class="cls-4" points="199.75 131.91 199.75 164.13 148.76 251.36 148.76 349.91"/></g></svg>