<?xml version="1.0" encoding="UTF-8"?><svg id="_图层_2" xmlns="http://www.w3.org/2000/svg" xmlns:xlink="http://www.w3.org/1999/xlink" viewBox="0 0 1404.72 307.19"><defs><style>.cls-1{fill:none;}.cls-2{clip-path:url(#clippath);}.cls-3{fill:#231815;}.cls-4{clip-path:url(#clippath-1);}.cls-5{clip-path:url(#clippath-4);}.cls-6{clip-path:url(#clippath-3);}.cls-7{clip-path:url(#clippath-2);}.cls-8{clip-path:url(#clippath-7);}.cls-9{clip-path:url(#clippath-6);}.cls-10{clip-path:url(#clippath-5);}.cls-11{fill:url(#radial-gradient-6);}.cls-12{fill:url(#radial-gradient-5);}.cls-13{fill:url(#radial-gradient-3);}.cls-14{fill:url(#radial-gradient-4);}.cls-15{fill:url(#radial-gradient-8);}.cls-16{fill:url(#radial-gradient-7);}.cls-17{fill:url(#radial-gradient-2);}.cls-18{fill:url(#radial-gradient);}</style><clipPath id="clippath"><path class="cls-1" d="M29.31,121.85c1.36,25.65,20.65,40.83,20.65,40.83,31.09,30.29,106.36,68.54,123.85,77.23,.25,.09,1.15,.38,1.68-.29,0,0,.73-.57,.34-1.52h.02C127.96,133.45,62.43,54.11,62.43,54.11c0,0-35.65,33.83-33.11,67.73"/></clipPath><radialGradient id="radial-gradient" cx="-1046.29" cy="766.72" fx="-1046.29" fy="766.72" r="1" gradientTransform="translate(307918.86 225493.71) scale(294.05 -294.05)" gradientUnits="userSpaceOnUse"><stop offset="0" stop-color="#f7bfa4"/><stop offset=".05" stop-color="#f4a690"/><stop offset=".43" stop-color="#e60012"/><stop offset=".69" stop-color="#e40011"/><stop offset=".79" stop-color="#dc000f"/><stop offset=".87" stop-color="#d0000c"/><stop offset=".93" stop-color="#bf0008"/><stop offset=".98" stop-color="#a90002"/><stop offset="1" stop-color="#a00000"/></radialGradient><clipPath id="clippath-1"><path class="cls-1" d="M36.94,268.73c13.59,24.22,36.48,43.05,60.31,37.27,16.45-4.11,53.72-30.1,66.02-38.89l-.03-.03c.95-.86,.61-1.56,.61-1.56-.31-1.12-1.61-1.12-1.61-1.12v-.04l-125.31,4.38Z"/></clipPath><radialGradient id="radial-gradient-2" cx="-1046.29" cy="766.73" fx="-1046.29" fy="766.73" r="1" gradientTransform="translate(307966.77 225529.65) scale(294.1 -294.1)" xlink:href="#radial-gradient"/><clipPath id="clippath-2"><path class="cls-1" d="M6.96,212.47c13.59,28.74,39.54,37.44,39.54,37.44,11.98,4.92,23.97,5.26,23.97,5.26,1.87,.35,74.52,.04,93.99-.05,.83-.01,1.29-.85,1.29-.85,.61-.98-.47-1.87-.47-1.87h0C110.25,215.26,3.58,158.26,3.58,158.26c-9.69,30.02,3.38,54.21,3.38,54.21"/></clipPath><radialGradient id="radial-gradient-3" cx="-1046.29" cy="766.73" fx="-1046.29" fy="766.73" r="1" gradientTransform="translate(307897.43 225478.38) scale(294.03 -294.03)" xlink:href="#radial-gradient"/><clipPath id="clippath-3"><path class="cls-1" d="M153.89,3.83c-33.17,8.57-41.02,38.68-41.02,38.68-6.05,18.95,.16,39.74,.16,39.74,11.08,49.14,65.56,129.88,77.28,146.83,.83,.83,1.48,.53,1.48,.53,1.26-.35,1.17-1.57,1.17-1.57h.02C211.02,47.78,174.07,0,174.07,0c-5.46,.48-20.17,3.83-20.17,3.83"/></clipPath><radialGradient id="radial-gradient-4" cx="-1046.29" cy="766.73" fx="-1046.29" fy="766.73" r="1" gradientTransform="translate(307903.13 225483.17) scale(294.04 -294.04)" xlink:href="#radial-gradient"/><clipPath id="clippath-4"><path class="cls-1" d="M214.58,228.19h.02c.14,1.14,.95,1.38,.95,1.38,1.21,.47,1.82-.7,1.82-.7h0c12.02-17.37,66.2-97.68,77.22-146.62,0,0,5.98-23.69,.2-39.74,0,0-8.19-30.57-41.41-38.65,0,0-9.57-2.42-19.73-3.86,0,0-37.13,47.81-19.08,228.19"/></clipPath><radialGradient id="radial-gradient-5" cx="-1046.29" cy="766.73" fx="-1046.29" fy="766.73" r="1" gradientTransform="translate(308247.22 225735.82) scale(294.37 -294.37)" xlink:href="#radial-gradient"/><clipPath id="clippath-5"><path class="cls-1" d="M245.22,264.48s-1.09,.14-1.41,.96c0,0-.26,1.13,.48,1.69h-.02c11.99,8.62,48.36,34.04,65.89,38.98,0,0,32.39,11.04,60.53-37.3l-125.47-4.37v.04Z"/></clipPath><radialGradient id="radial-gradient-6" cx="-1046.29" cy="766.73" fx="-1046.29" fy="766.73" r="1" gradientTransform="translate(308232.21 225725.07) scale(294.35 -294.35)" xlink:href="#radial-gradient"/><clipPath id="clippath-6"><path class="cls-1" d="M242.45,252.31l.02,.02s-1,.65-.65,1.82c0,0,.52,.94,1.29,.94h0c19.72,.04,94.36,.13,96.24-.22,0,0,9.65-.38,21.58-4.96,0,0,26.54-8.44,40.34-38.59,0,0,12.3-24.59,2.78-53.32,0,0-106.52,57.17-161.59,94.31"/></clipPath><radialGradient id="radial-gradient-7" cx="-1046.29" cy="766.73" fx="-1046.29" fy="766.73" r="1" gradientTransform="translate(308227.95 225721.83) scale(294.35 -294.35)" xlink:href="#radial-gradient"/><clipPath id="clippath-7"><path class="cls-1" d="M232.02,237.62h.03s-.57,1.21,.34,1.99c0,0,.87,.65,1.69,.12h0c17.96-8.91,92.66-46.91,123.59-77.06,0,0,19.59-15.74,20.63-41,2.26-35.09-33.06-67.56-33.06-67.56,0,0-65.34,79.08-113.22,183.51"/></clipPath><radialGradient id="radial-gradient-8" cx="-1046.29" cy="766.73" fx="-1046.29" fy="766.73" r="1" gradientTransform="translate(308222.59 225717.63) scale(294.34 -294.34)" xlink:href="#radial-gradient"/></defs><g id="_图层_1-2"><g><polygon class="cls-3" points="587.03 163.67 516.09 163.67 516.09 101.2 484.67 101.2 484.67 256.05 516.09 256.05 516.09 193.16 587.03 193.16 587.03 256.05 618.45 256.05 618.45 101.2 587.03 101.2 587.03 163.67"/><path class="cls-3" d="M764.02,189.83c0,25.18-12.5,38.62-35.2,38.62s-35.41-13.82-35.41-39.69V101.29h-31.42v88.54c0,43.56,24.2,68.54,66.4,68.54s67.03-25.45,67.03-69.82V101.2h-31.42v88.63Z"/><polygon class="cls-3" points="1127.13 207.68 1091.97 101.18 1066.33 101.18 1031.18 207.68 996.98 101.27 963.54 101.27 1017.5 256.05 1043.52 256.05 1078.73 154.37 1113.93 256.05 1140.17 256.05 1194 101.27 1161.42 101.27 1127.13 207.68"/><polygon class="cls-3" points="1250.32 189.41 1307.47 189.41 1307.47 161.21 1250.32 161.21 1250.32 129.51 1333.27 129.51 1333.27 101.31 1219.33 101.31 1219.33 255.95 1336.26 255.95 1336.26 227.75 1250.32 227.75 1250.32 189.41"/><rect class="cls-3" x="1373.73" y="101.19" width="30.99" height="154.65"/><path class="cls-3" d="M928.4,223.73l13.9,32.23h32.93l-67.57-153.86-.61-.89h-27.47l-68.22,154.76h32.07l13.16-29.97h0l.95-2.26h70.87Zm-35.51-83.34l22.4,51.83h-.07l1.5,3.59h-47.5l1.5-3.59h-.04l22.21-51.83Z"/><g class="cls-2"><rect class="cls-18" x="26.78" y="54.11" width="149.45" height="186.17"/></g><g class="cls-4"><rect class="cls-17" x="36.94" y="264.36" width="127.25" height="47.42"/></g><g class="cls-7"><rect class="cls-13" x="-6.12" y="158.26" width="172.48" height="97.25"/></g><g class="cls-6"><rect class="cls-14" x="106.82" width="104.2" height="229.92"/></g><g class="cls-5"><rect class="cls-12" x="196.53" width="104.05" height="230.04"/></g><g class="cls-10"><rect class="cls-11" x="243.55" y="264.44" width="127.14" height="52.71"/></g><g class="cls-9"><rect class="cls-16" x="241.47" y="158" width="172.09" height="97.22"/></g><g class="cls-8"><rect class="cls-15" x="231.48" y="54.11" width="149.08" height="186.14"/></g></g></g></svg>