<svg width="64" height="64" viewBox="0 0 64 64" fill="none" xmlns="http://www.w3.org/2000/svg">
<path fill-rule="evenodd" clip-rule="evenodd" d="M20.718 11.0053C20.387 10.9606 20.0918 11.2022 20.056 11.5242L19.6982 14.5211C19.6624 14.8521 19.895 15.1473 20.217 15.1831H20.2886C20.5838 15.1831 20.8432 14.9595 20.879 14.6553L21.2369 11.6584C21.2816 11.3363 21.049 11.0411 20.718 11.0053ZM15.8871 29.0225C13.579 27.6805 12.2908 25.0952 12.6129 22.4471C13.0512 18.7882 16.3881 16.176 20.0381 16.6054C22.7755 16.9364 24.9941 18.8687 25.7009 21.5346C25.7903 21.8478 25.6025 22.1788 25.2804 22.2593C24.9673 22.3487 24.6363 22.1609 24.5558 21.8388C23.9743 19.656 22.1493 18.0636 19.9039 17.7952C16.898 17.4374 14.1605 19.5844 13.7937 22.5903C13.5343 24.7731 14.5899 26.8933 16.4865 27.9937C16.7728 28.1547 16.8712 28.5215 16.7012 28.8077C16.5849 28.9956 16.3881 29.103 16.1823 29.103C16.0839 29.103 15.9855 29.0761 15.8871 29.0225ZM49.1034 24.0216C49.3718 24.0216 49.5955 24.1916 49.676 24.442L55.8308 44.1412C55.8666 44.2217 55.8845 44.3111 55.8845 44.4006C55.8845 44.7316 55.6161 45 55.2851 45H55.2762H14.4555C14.2587 45 14.0887 44.9105 13.9724 44.7584C13.8561 44.6063 13.8293 44.4095 13.883 44.2306L20.0557 24.442C20.1362 24.1916 20.3688 24.0216 20.6283 24.0216H49.1034ZM28.9033 32.1446C28.9302 31.8136 29.2075 31.572 29.5385 31.5899C29.8606 31.6167 30.111 31.903 30.0931 32.2251L29.8516 35.8482H51.984L50.4006 30.7758H40.7389L40.9626 34.1485C40.9894 34.4795 40.7389 34.7657 40.4079 34.7836H40.3721C40.0679 34.7836 39.7996 34.5421 39.7817 34.229L39.5491 30.7758H19.3311L17.7477 35.8482H28.6618L28.9033 32.1446ZM40.6673 29.586H50.0338L48.674 25.2114H40.3811L40.6673 29.586ZM29.3596 25.2114H21.0666L19.6889 29.586H39.4596L39.1733 25.2114H30.5494L30.3436 28.3246C30.3257 28.6377 30.0663 28.8793 29.7532 28.8793H29.7174C29.3864 28.8524 29.1449 28.5751 29.1628 28.2441L29.3596 25.2114ZM28.5813 37.038H17.3809L15.2696 43.8012H28.134L28.5813 37.038ZM41.2757 38.8004L41.6067 43.8012V43.8102H54.4621L52.3508 37.047H29.7621L29.3148 43.8102H40.4079L40.0858 38.8809C40.059 38.5499 40.3095 38.2636 40.6405 38.2457C40.9715 38.2278 41.2578 38.4694 41.2757 38.8004ZM16.0571 15.7824C15.9856 15.8093 15.9051 15.8271 15.8246 15.8271C15.592 15.8271 15.3683 15.693 15.2699 15.4693L14.0801 12.696C13.9459 12.4008 14.089 12.043 14.3932 11.9177C14.6974 11.7836 15.0552 11.9267 15.1804 12.2309L16.3703 15.0041C16.5044 15.2993 16.3613 15.6572 16.0571 15.7824ZM9.37409 15.8451C9.17728 16.1046 9.23096 16.4803 9.49039 16.6771L11.9058 18.4931C12.0132 18.5737 12.1384 18.6094 12.2637 18.6094C12.4426 18.6094 12.6215 18.5289 12.7378 18.3679C12.9346 18.1085 12.8809 17.7327 12.6215 17.5359L10.215 15.7288C9.94664 15.532 9.5709 15.5857 9.37409 15.8451ZM11.1814 22.2682C11.1456 22.5724 10.8862 22.7961 10.591 22.7961H10.591C10.5641 22.7961 10.5373 22.7961 10.5194 22.7871L7.5225 22.4293C7.20045 22.3935 6.96785 22.0983 7.00363 21.7673C7.03942 21.4452 7.34358 21.2126 7.66564 21.2484L10.6626 21.6062C10.9846 21.642 11.2172 21.9372 11.1814 22.2682ZM11.7719 26.4372C11.6467 26.133 11.2888 25.9899 10.9847 26.124L8.2114 27.3139C7.90724 27.4391 7.7641 27.7969 7.89829 28.1011C7.9967 28.3248 8.2114 28.459 8.444 28.459C8.52451 28.459 8.60502 28.4411 8.67659 28.4142L11.4499 27.2244C11.763 27.0902 11.9061 26.7413 11.7719 26.4372ZM27.49 20.3716C27.4184 20.3984 27.3379 20.4163 27.2574 20.4163C27.0338 20.4163 26.8101 20.2822 26.7117 20.0585C26.5775 19.7633 26.7207 19.4054 27.0248 19.2802L29.7981 18.0904C30.0933 17.9562 30.4511 18.0993 30.5764 18.4035C30.7106 18.6987 30.5674 19.0565 30.2633 19.1818L27.49 20.3716ZM12.6756 32.9948L14.4916 30.5793C14.6884 30.3199 14.6347 29.9442 14.3753 29.7474C14.1159 29.5505 13.7401 29.6042 13.5433 29.8637L11.7273 32.2791C11.5305 32.5385 11.5841 32.9142 11.8436 33.1111C11.9509 33.1916 12.0762 33.2274 12.2014 33.2274C12.3803 33.2363 12.5593 33.1468 12.6756 32.9948ZM24.4751 16.8648C24.3498 16.8648 24.2246 16.8291 24.1172 16.7486C23.8578 16.5517 23.8041 16.176 24.0009 15.9166L25.817 13.5011C26.0138 13.2417 26.3895 13.188 26.6489 13.3849C26.9084 13.5817 26.9621 13.9574 26.7652 14.2168L24.9492 16.6233C24.8329 16.7843 24.654 16.8648 24.4751 16.8648Z" fill="#222244"/>
</svg>
