<?xml version="1.0" encoding="UTF-8"?> <svg xmlns="http://www.w3.org/2000/svg" width="34" height="60" viewBox="0 0 34 60" fill="none"><path d="M30.7282 0H3.11014C1.36846 0 0 1.36846 0 3.11014V48.3938H1.74168V3.11014C1.74168 2.36371 2.36371 1.74168 3.11014 1.74168H30.7282C31.4746 1.74168 32.0967 2.36371 32.0967 3.11014V56.4802C32.0967 57.2266 31.4746 57.8486 30.7282 57.8486H3.11014C2.36371 57.8486 1.74168 57.2266 1.74168 56.4802V52.2504H0V56.4802C0 58.2218 1.36846 59.5903 3.11014 59.5903H30.7282C32.4699 59.5903 33.8383 58.2218 33.8383 56.4802V3.11014C33.9627 1.36846 32.4699 0 30.7282 0Z" fill="#146849"></path><path d="M20.1537 3.23474H13.6846V5.10083H20.1537V3.23474Z" fill="#146849"></path><path d="M23.2645 53.1215H10.4507V54.9875H23.2645V53.1215Z" fill="#146849"></path><path d="M4.78711 39.7469L10.6599 28.5575H15.6957L17.7937 23.5224H25.0667L28.2837 16.5291" stroke="#146849" stroke-width="1.4"></path></svg> 