<?xml version="1.0" standalone="no"?>
<!DOCTYPE svg PUBLIC "-//W3C//DTD SVG 20010904//EN"
 "http://www.w3.org/TR/2001/REC-SVG-20010904/DTD/svg10.dtd">
<svg version="1.0" xmlns="http://www.w3.org/2000/svg"
 width="700.000000pt" height="700.000000pt" viewBox="0 0 700.000000 700.000000"
 preserveAspectRatio="xMidYMid meet">
<metadata>
Created by potrace 1.14, written by Peter Selinger 2001-2017
</metadata>
<g transform="translate(0.000000,700.000000) scale(0.100000,-0.100000)"
fill="#000000" stroke="none">
<path d="M0 3500 l0 -3500 1161 2 1162 3 83 305 c46 168 86 314 89 325 5 21
20 77 80 295 39 141 153 556 184 670 11 41 88 323 171 625 83 303 153 557 154
565 5 22 75 276 92 335 16 58 94 343 99 365 2 8 14 49 25 90 12 41 23 82 25
90 2 8 15 58 30 110 14 52 28 102 30 110 3 13 63 232 125 460 10 36 46 166 80
290 34 124 63 232 65 240 2 8 16 58 31 110 14 52 28 102 29 110 2 8 22 83 45
165 23 83 43 157 45 165 2 8 16 58 31 110 14 52 30 109 34 125 4 17 24 91 45
165 20 74 47 173 60 220 12 47 75 276 139 509 64 233 116 428 116 433 0 4
-952 8 -2115 8 l-2115 0 0 -3500z"/>
<path d="M4560 6995 c0 -3 -35 -135 -79 -293 -43 -158 -142 -523 -221 -812
-78 -289 -148 -547 -156 -575 -20 -72 -118 -433 -148 -545 -14 -52 -70 -261
-125 -465 -56 -203 -108 -397 -117 -430 -9 -33 -20 -71 -24 -85 -5 -14 -34
-122 -65 -240 -32 -118 -65 -242 -75 -275 -9 -33 -27 -98 -40 -145 -12 -47
-33 -124 -47 -171 -13 -47 -25 -95 -28 -105 -2 -10 -32 -125 -68 -254 -35
-129 -112 -410 -170 -625 -326 -1201 -395 -1453 -458 -1685 -38 -140 -72 -263
-75 -272 -5 -17 103 -18 2165 -18 l2171 0 0 3500 0 3500 -1220 0 c-671 0
-1220 -2 -1220 -5z"/>
</g>
</svg>
