<?xml version="1.0" encoding="UTF-8"?>
<svg id="_Шар_2" data-name="Шар 2" xmlns="http://www.w3.org/2000/svg" width="1228.68" height="180.6" viewBox="0 0 1228.68 180.6">
  <defs>
    <style>
      .cls-1 {
        fill: #fff;
      }

      .cls-2 {
        fill: #41b883;
      }

      .cls-3 {
        fill: #35495e;
      }

      .cls-4 {
        fill: none;
      }
    </style>
  </defs>
  <g id="_Шар_1-2" data-name="Шар 1">
    <g>
      <rect class="cls-4" x="0" y="0" width="1228.68" height="180.6"/>
      <rect class="cls-4" width="1228.68" height="180.6"/>
      <g>
        <g>
          <polyline class="cls-3" points="0 21.6 630.6 21.6 587.4 180.6 0 180.6 0 21.6"/>
          <path class="cls-1" d="m23,155.8v-21.7c29.4,1.6,49.3,2.4,59.7,2.4h0c2.4,0,4.4-.7,5.9-2.2,1.4-1.4,2.2-3.4,2.2-5.9h0v-14.5s-37,0-37,0c-11.3,0-19.4-2.5-24.5-7.6s-7.6-13.2-7.6-24.5h0v-4.8c0-11.3,2.5-19.4,7.6-24.5,5.1-5.1,13.3-7.6,24.5-7.6h56.3s0,22.5,0,22.5h-50c-6.4,0-9.6,3.2-9.6,9.6h0v3.2c0,6.4,3.2,9.6,9.6,9.6h29c10.5,0,18.2,2.5,23.2,7.4,4.9,4.9,7.4,12.6,7.4,23.2h0v8c0,10.5-2.5,18.2-7.4,23.2-5,4.9-12.7,7.4-23.2,7.4h0c-5.5,0-11.3-.1-17.4-.3h0l-14.8-.6c-10.9-.6-22.2-1.4-33.9-2.3h0Zm183.5-29v-51.4c0-6.4-3.2-9.6-9.7-9.6h-27.3c-6.5,0-9.7,3.2-9.7,9.6h0v51.5c0,6.4,3.2,9.6,9.7,9.6h27.3c6.4,0,9.7-3.2,9.7-9.7h0Zm28.9-51.4v51.5c0,11.3-2.5,19.4-7.6,24.5-5.1,5.1-13.3,7.6-24.5,7.6h-40.2c-11.3,0-19.4-2.5-24.5-7.6-5.1-5.1-7.6-13.2-7.6-24.5h0v-51.5c0-11.3,2.5-19.4,7.6-24.5s13.3-7.6,24.5-7.6h40.2c11.3,0,19.4,2.5,24.5,7.6s7.6,13.2,7.6,24.5h0Zm45-30.6v90s58.7,0,58.7,0v22.6s-87.6,0-87.6,0V44.8s28.9,0,28.9,0Zm97.3,92.5l-7.2,20.1h-31.4s42.6-112.5,42.6-112.5h32.2s42.6,112.5,42.6,112.5h-31.4s-7.2-20.1-7.2-20.1h-40.2Zm20.1-58.7l-12.9,37.8h25.7s-12.8-37.8-12.8-37.8Zm66.7,78.8V44.8s67.5,0,67.5,0c11.3,0,19.4,2.5,24.5,7.6,5.1,5.1,7.6,13.2,7.6,24.5h0v14.5c0,8.9-1.5,15.8-4.4,20.7-2.9,4.9-7.6,8.2-14.1,9.8h0l20.1,35.4h-31.4s-18.5-33.8-18.5-33.8h-22.5s0,33.9,0,33.9h-28.8Zm70.7-65.9v-14.5c0-6.4-3.2-9.6-9.6-9.6h-32.1s0,33.7,0,33.7h32.1c6.4,0,9.6-3.2,9.6-9.6h0Z"/>
        </g>
        <g>
          <polyline class="cls-2" points="656.48 0 1228.68 0 1228.68 159 613.28 159 656.48 0"/>
          <path class="cls-1" d="m679.58,134.2v-21.7c29.4,1.6,49.3,2.4,59.7,2.4h0c2.4,0,4.4-.7,5.9-2.2,1.4-1.4,2.2-3.4,2.2-5.9h0v-14.4s-37,0-37,0c-11.3,0-19.4-2.5-24.5-7.6s-7.6-13.2-7.6-24.5h0v-4.9c0-11.3,2.5-19.4,7.6-24.5,5.1-5.1,13.3-7.6,24.5-7.6h56.4s0,22.5,0,22.5h-50c-6.4,0-9.6,3.2-9.6,9.6h0v3.2c0,6.4,3.2,9.6,9.6,9.6h28.9c10.5,0,18.2,2.5,23.2,7.4,4.9,4.9,7.4,12.6,7.4,23.2h0v8c0,10.5-2.5,18.2-7.4,23.2-5,4.9-12.7,7.4-23.2,7.4h0c-5.5,0-11.3-.1-17.4-.3h0l-14.8-.6c-10.9-.6-22.2-1.4-33.9-2.3h0Zm200.3-20.9v22.5s-89.2,0-89.2,0V23.2s89.2,0,89.2,0v22.5s-60.3,0-60.3,0v21.7s47.5,0,47.5,0v22.5s-47.4,0-47.4,0v23.3s60.2,0,60.2,0v.1Zm110.9-90.1v112.5s-30.5,0-30.5,0l-38.6-67.5v67.5s-28.9,0-28.9,0V23.2s30.5,0,30.5,0l38.6,67.5V23.2s28.9,0,28.9,0Zm16,111v-21.7c29.4,1.6,49.3,2.4,59.7,2.4h0c2.4,0,4.4-.7,5.8-2.2,1.5-1.4,2.2-3.4,2.2-5.9h0v-14.4s-37,0-37,0c-11.3,0-19.4-2.5-24.5-7.6s-7.6-13.2-7.6-24.5h0v-4.9c0-11.3,2.5-19.4,7.6-24.5s13.3-7.6,24.5-7.6h56.4s0,22.5,0,22.5h-50c-6.4,0-9.6,3.2-9.6,9.6h0v3.2c0,6.4,3.2,9.6,9.6,9.6h28.9c10.5,0,18.2,2.5,23.2,7.4s7.4,12.6,7.4,23.2h0v8c0,10.5-2.5,18.2-7.4,23.2-4.9,4.9-12.6,7.4-23.2,7.4h0c-5.4,0-11.2-.1-17.4-.3h0l-14.8-.6c-10.9-.6-22.2-1.4-33.8-2.3h0Zm200.3-20.9v22.5s-89.3,0-89.3,0V23.2s89.3,0,89.3,0v22.5s-60.3,0-60.3,0v21.7s47.4,0,47.4,0v22.5s-47.4,0-47.4,0v23.3s60.3,0,60.3,0v.1Z"/>
        </g>
      </g>
    </g>
  </g>
</svg>