<svg id="visual" viewBox="0 0 960 540" width="960" height="540" xmlns="http://www.w3.org/2000/svg" xmlns:xlink="http://www.w3.org/1999/xlink" version="1.1"><path d="M0 510L31 510L31 503L62 503L62 507L93 507L93 509L124 509L124 519L155 519L155 514L186 514L186 518L217 518L217 503L248 503L248 518L279 518L279 511L310 511L310 502L341 502L341 505L372 505L372 502L403 502L403 525L434 525L434 497L465 497L465 515L495 515L495 524L526 524L526 527L557 527L557 517L588 517L588 513L619 513L619 525L650 525L650 497L681 497L681 511L712 511L712 503L743 503L743 504L774 504L774 496L805 496L805 512L836 512L836 528L867 528L867 507L898 507L898 508L929 508L929 507L960 507L960 514L960 541L960 541L929 541L929 541L898 541L898 541L867 541L867 541L836 541L836 541L805 541L805 541L774 541L774 541L743 541L743 541L712 541L712 541L681 541L681 541L650 541L650 541L619 541L619 541L588 541L588 541L557 541L557 541L526 541L526 541L495 541L495 541L465 541L465 541L434 541L434 541L403 541L403 541L372 541L372 541L341 541L341 541L310 541L310 541L279 541L279 541L248 541L248 541L217 541L217 541L186 541L186 541L155 541L155 541L124 541L124 541L93 541L93 541L62 541L62 541L31 541L31 541L0 541Z" fill="#F0FAF5" stroke-linecap="square" stroke-linejoin="miter"></path></svg>