
<svg id="visual" viewBox="0 0 900 600" width="900" height="600" xmlns="http://www.w3.org/2000/svg" xmlns:xlink="http://www.w3.org/1999/xlink" version="1.1"><path d="M0 571L29 571L29 570L58 570L58 561L87 561L87 570L116 570L116 557L145 557L145 559L174 559L174 571L203 571L203 583L232 583L232 572L261 572L261 559L290 559L290 555L319 555L319 580L348 580L348 570L377 570L377 576L406 576L406 572L435 572L435 575L465 575L465 556L494 556L494 562L523 562L523 555L552 555L552 571L581 571L581 582L610 582L610 572L639 572L639 579L668 579L668 568L697 568L697 578L726 578L726 574L755 574L755 578L784 578L784 576L813 576L813 583L842 583L842 583L871 583L871 574L900 574L900 569L900 601L900 601L871 601L871 601L842 601L842 601L813 601L813 601L784 601L784 601L755 601L755 601L726 601L726 601L697 601L697 601L668 601L668 601L639 601L639 601L610 601L610 601L581 601L581 601L552 601L552 601L523 601L523 601L494 601L494 601L465 601L465 601L435 601L435 601L406 601L406 601L377 601L377 601L348 601L348 601L319 601L319 601L290 601L290 601L261 601L261 601L232 601L232 601L203 601L203 601L174 601L174 601L145 601L145 601L116 601L116 601L87 601L87 601L58 601L58 601L29 601L29 601L0 601Z" fill="#222244" stroke-linecap="square" stroke-linejoin="miter"></path></svg>