
<svg id="visual" viewBox="0 0 900 600" width="900" height="600" xmlns="http://www.w3.org/2000/svg" xmlns:xlink="http://www.w3.org/1999/xlink" version="1.1"><path d="M0 27L29 27L29 28L58 28L58 37L87 37L87 28L116 28L116 41L145 41L145 39L174 39L174 27L203 27L203 15L232 15L232 26L261 26L261 39L290 39L290 43L319 43L319 18L348 18L348 28L377 28L377 22L406 22L406 26L435 26L435 23L465 23L465 42L494 42L494 36L523 36L523 43L552 43L552 27L581 27L581 16L610 16L610 26L639 26L639 19L668 19L668 30L697 30L697 20L726 20L726 24L755 24L755 20L784 20L784 22L813 22L813 15L842 15L842 15L871 15L871 24L900 24L900 29L900 0L900 0L871 0L871 0L842 0L842 0L813 0L813 0L784 0L784 0L755 0L755 0L726 0L726 0L697 0L697 0L668 0L668 0L639 0L639 0L610 0L610 0L581 0L581 0L552 0L552 0L523 0L523 0L494 0L494 0L465 0L465 0L435 0L435 0L406 0L406 0L377 0L377 0L348 0L348 0L319 0L319 0L290 0L290 0L261 0L261 0L232 0L232 0L203 0L203 0L174 0L174 0L145 0L145 0L116 0L116 0L87 0L87 0L58 0L58 0L29 0L29 0L0 0Z" fill="#222244" stroke-linecap="square" stroke-linejoin="miter"></path></svg>