<svg id="visual" viewBox="0 0 900 675" width="900" height="675" xmlns="http://www.w3.org/2000/svg" xmlns:xlink="http://www.w3.org/1999/xlink" version="1.1"><path d="M0 585L29 585L29 593L58 593L58 590L87 590L87 547L116 547L116 530L145 530L145 581L174 581L174 533L203 533L203 540L232 540L232 530L261 530L261 613L290 613L290 576L319 576L319 604L348 604L348 603L377 603L377 613L406 613L406 612L435 612L435 623L465 623L465 574L494 574L494 544L523 544L523 575L552 575L552 584L581 584L581 579L610 579L610 593L639 593L639 581L668 581L668 536L697 536L697 547L726 547L726 590L755 590L755 590L784 590L784 564L813 564L813 565L842 565L842 577L871 577L871 579L900 579L900 566L900 676L900 676L871 676L871 676L842 676L842 676L813 676L813 676L784 676L784 676L755 676L755 676L726 676L726 676L697 676L697 676L668 676L668 676L639 676L639 676L610 676L610 676L581 676L581 676L552 676L552 676L523 676L523 676L494 676L494 676L465 676L465 676L435 676L435 676L406 676L406 676L377 676L377 676L348 676L348 676L319 676L319 676L290 676L290 676L261 676L261 676L232 676L232 676L203 676L203 676L174 676L174 676L145 676L145 676L116 676L116 676L87 676L87 676L58 676L58 676L29 676L29 676L0 676Z" fill="#F0FAF5" stroke-linecap="square" stroke-linejoin="miter"></path></svg>