
<svg id="visual" viewBox="0 0 900 100" width="900" height="100" xmlns="http://www.w3.org/2000/svg" xmlns:xlink="http://www.w3.org/1999/xlink" version="1.1"><path d="M0 21L29 21L29 10L58 10L58 2L87 2L87 6L116 6L116 24L145 24L145 28L174 28L174 33L203 33L203 12L232 12L232 10L261 10L261 9L290 9L290 1L319 1L319 15L348 15L348 32L377 32L377 36L406 36L406 9L435 9L435 25L465 25L465 37L494 37L494 4L523 4L523 23L552 23L552 9L581 9L581 19L610 19L610 9L639 9L639 32L668 32L668 38L697 38L697 27L726 27L726 38L755 38L755 34L784 34L784 35L813 35L813 34L842 34L842 16L871 16L871 23L900 23L900 37L900 0L900 0L871 0L871 0L842 0L842 0L813 0L813 0L784 0L784 0L755 0L755 0L726 0L726 0L697 0L697 0L668 0L668 0L639 0L639 0L610 0L610 0L581 0L581 0L552 0L552 0L523 0L523 0L494 0L494 0L465 0L465 0L435 0L435 0L406 0L406 0L377 0L377 0L348 0L348 0L319 0L319 0L290 0L290 0L261 0L261 0L232 0L232 0L203 0L203 0L174 0L174 0L145 0L145 0L116 0L116 0L87 0L87 0L58 0L58 0L29 0L29 0L0 0Z" fill="#222244" stroke-linecap="square" stroke-linejoin="miter"></path></svg>