<?xml version="1.0" standalone="no"?>
<!DOCTYPE svg PUBLIC "-//W3C//DTD SVG 20010904//EN"
 "http://www.w3.org/TR/2001/REC-SVG-20010904/DTD/svg10.dtd">
<svg version="1.0" xmlns="http://www.w3.org/2000/svg"
 width="700.000000pt" height="700.000000pt" viewBox="0 0 700.000000 700.000000"
 preserveAspectRatio="xMidYMid meet">
<metadata>
Created by potrace 1.14, written by Peter Selinger 2001-2017
</metadata>
<g transform="translate(0.000000,700.000000) scale(0.100000,-0.100000)"
fill="#000000" stroke="none">
<path d="M3991 5003 c-10 -37 -600 -2475 -645 -2665 l-23 -98 1502 0 1501 0
333 1378 c183 757 335 1387 338 1400 l5 22 -1501 0 -1500 0 -10 -37z m1839
-593 l0 -200 -479 0 -478 0 -34 -23 c-52 -34 -69 -78 -69 -176 0 -100 22 -156
72 -186 31 -19 58 -20 403 -26 301 -5 381 -9 428 -22 167 -48 253 -139 298
-315 28 -110 28 -425 -1 -536 -36 -140 -94 -217 -205 -271 -97 -47 -157 -57
-380 -62 -195 -4 -220 -3 -347 21 -100 19 -218 30 -433 43 l-295 17 0 188 0
188 45 0 c25 0 230 -9 457 -21 489 -24 606 -23 638 6 42 37 50 75 50 229 l0
144 -412 5 c-452 4 -467 6 -590 68 -110 56 -168 136 -204 284 -25 100 -25 393
-1 485 40 146 101 233 204 288 122 64 176 69 831 71 l502 1 0 -200z"/>
<path d="M337 3318 c-186 -772 -337 -1406 -337 -1411 0 -4 676 -6 1502 -5
l1501 3 338 1405 c187 773 339 1406 339 1408 0 1 -676 2 -1503 2 l-1503 0
-337 -1402z m2163 777 l0 -195 -455 0 c-516 0 -520 0 -555 -71 -16 -30 -20
-59 -20 -134 0 -111 17 -158 72 -190 31 -19 57 -20 408 -26 302 -5 384 -9 421
-21 229 -78 309 -228 309 -577 0 -351 -79 -497 -310 -573 -58 -19 -93 -22
-320 -25 -140 -3 -316 0 -390 5 -74 6 -238 18 -365 27 -126 9 -249 19 -272 21
l-43 5 0 185 0 184 68 0 c37 0 189 -7 337 -15 149 -8 365 -18 480 -21 304 -10
305 -9 305 240 l0 154 -397 5 c-329 3 -409 7 -461 21 -137 35 -236 106 -285
203 -43 85 -58 158 -64 323 -16 431 94 615 392 659 33 5 304 9 603 10 l542 1
0 -195z"/>
</g>
</svg>
