
<svg id="visual" viewBox="0 0 900 100" width="900" height="100" xmlns="http://www.w3.org/2000/svg" xmlns:xlink="http://www.w3.org/1999/xlink" version="1.1"><path d="M0 92L29 92L29 86L58 86L58 52L87 52L87 82L116 82L116 77L145 77L145 43L174 43L174 74L203 74L203 55L232 55L232 67L261 67L261 84L290 84L290 67L319 67L319 83L348 83L348 54L377 54L377 53L406 53L406 49L435 49L435 75L465 75L465 78L494 78L494 51L523 51L523 64L552 64L552 74L581 74L581 52L610 52L610 67L639 67L639 92L668 92L668 60L697 60L697 77L726 77L726 70L755 70L755 71L784 71L784 70L813 70L813 87L842 87L842 68L871 68L871 85L900 85L900 72L900 101L900 101L871 101L871 101L842 101L842 101L813 101L813 101L784 101L784 101L755 101L755 101L726 101L726 101L697 101L697 101L668 101L668 101L639 101L639 101L610 101L610 101L581 101L581 101L552 101L552 101L523 101L523 101L494 101L494 101L465 101L465 101L435 101L435 101L406 101L406 101L377 101L377 101L348 101L348 101L319 101L319 101L290 101L290 101L261 101L261 101L232 101L232 101L203 101L203 101L174 101L174 101L145 101L145 101L116 101L116 101L87 101L87 101L58 101L58 101L29 101L29 101L0 101Z" fill="#F0FAF5" stroke-linecap="square" stroke-linejoin="miter"></path></svg>