<?xml version="1.0" standalone="no"?>
<!DOCTYPE svg PUBLIC "-//W3C//DTD SVG 20010904//EN"
 "http://www.w3.org/TR/2001/REC-SVG-20010904/DTD/svg10.dtd">
<svg version="1.0" xmlns="http://www.w3.org/2000/svg"
 width="1000.000000pt" height="1000.000000pt" viewBox="0 0 1000.000000 1000.000000"
 preserveAspectRatio="xMidYMid meet">
<metadata>
Created by potrace 1.14, written by Peter Selinger 2001-2017
</metadata>
<g transform="translate(0.000000,1000.000000) scale(0.100000,-0.100000)"
fill="#000000" stroke="none">
<path d="M5892 7598 c-5 -18 -17 -62 -26 -98 -10 -36 -22 -78 -28 -95 -10 -31
-24 -92 -33 -155 -3 -19 -12 -55 -19 -80 -8 -25 -21 -74 -31 -110 -10 -36 -23
-85 -30 -110 -7 -25 -20 -74 -30 -110 -9 -36 -24 -89 -31 -117 -8 -29 -21 -77
-28 -105 -24 -88 -57 -211 -67 -243 -4 -16 -15 -57 -24 -90 -9 -33 -22 -82
-30 -110 -20 -71 -43 -155 -61 -222 -8 -32 -21 -78 -30 -103 -29 -87 -56 -176
-70 -227 -13 -51 -27 -102 -61 -223 -8 -30 -21 -77 -28 -105 -32 -120 -46
-173 -60 -220 -13 -48 -22 -81 -60 -225 -21 -81 -41 -151 -60 -213 -8 -26 -15
-55 -15 -64 0 -8 -7 -36 -14 -62 -8 -25 -22 -72 -31 -103 -8 -32 -22 -84 -31
-115 -9 -32 -22 -78 -29 -103 -7 -25 -20 -74 -29 -110 -10 -36 -22 -78 -28
-95 -5 -16 -12 -41 -14 -55 -3 -14 -12 -49 -20 -77 -8 -29 -21 -78 -29 -108
-9 -30 -22 -80 -30 -110 -9 -30 -22 -80 -30 -110 -9 -30 -22 -80 -30 -110 -9
-30 -22 -80 -30 -110 -9 -30 -22 -80 -30 -110 -34 -126 -47 -172 -61 -217 -9
-26 -14 -57 -12 -70 l3 -23 2598 -3 c2304 -2 2597 0 2597 13 0 12 17 15 90 15
l90 0 0 2360 0 2360 -2049 0 -2049 0 -10 -32z m3326 -965 l-3 -328 -780 -6
c-429 -3 -793 -9 -810 -14 -70 -19 -132 -74 -164 -145 -17 -38 -21 -66 -21
-180 0 -161 14 -212 76 -274 71 -71 52 -69 709 -75 325 -3 595 -10 602 -14 7
-4 40 -12 75 -16 112 -15 229 -65 330 -138 125 -92 216 -253 248 -438 25 -147
30 -211 29 -430 0 -322 -25 -483 -97 -635 -41 -86 -94 -154 -167 -213 -61 -49
-190 -117 -223 -117 -10 0 -23 -5 -29 -11 -6 -6 -35 -14 -64 -19 -30 -4 -81
-13 -113 -20 -73 -14 -727 -9 -1061 9 -316 17 -678 39 -840 53 -77 6 -175 14
-218 17 l-78 6 0 320 0 320 23 0 c13 0 115 -6 228 -12 717 -43 1522 -70 1595
-53 78 18 127 56 165 130 18 36 20 59 20 289 0 218 -2 250 -16 255 -9 3 -302
6 -652 6 -376 1 -655 5 -682 11 -25 5 -63 12 -85 15 -49 7 -140 34 -225 68 -8
4 -28 15 -45 26 -16 11 -39 24 -50 29 -38 17 -142 130 -183 198 -41 70 -92
212 -112 318 -17 86 -24 521 -11 625 22 169 28 196 55 275 82 233 237 378 476
445 167 47 182 48 1168 49 l932 1 -2 -327z"/>
<path d="M0 4683 l0 -2366 293 6 c160 4 1035 7 1943 7 l1650 0 17 35 c9 20 17
46 17 59 0 13 7 37 15 52 8 16 15 39 15 52 0 12 7 39 15 59 8 19 15 47 15 62
1 14 7 37 15 51 8 14 14 37 15 51 0 15 7 40 15 55 8 16 15 39 15 52 0 12 7 39
15 59 8 19 15 47 15 62 1 14 7 37 15 51 8 14 15 39 15 55 0 17 7 41 15 55 8
14 15 39 15 55 0 17 7 41 15 55 8 14 15 39 15 55 0 17 7 41 15 55 8 14 15 39
15 55 0 17 7 41 15 55 8 14 15 39 15 55 0 17 7 41 15 55 8 14 15 39 15 55 0
17 7 41 15 55 8 14 14 36 15 49 0 13 7 46 16 75 9 28 22 71 30 96 8 25 14 55
14 66 0 12 7 35 15 50 8 16 15 37 15 48 0 10 7 41 16 70 9 28 22 71 30 96 8
25 14 56 14 70 1 14 7 34 15 44 8 11 15 31 15 44 0 13 7 45 14 71 8 25 22 72
30 104 22 78 43 156 61 222 9 30 22 80 30 110 36 134 47 172 57 200 5 17 14
48 18 70 12 56 30 125 42 160 6 17 13 48 17 70 4 22 13 50 19 62 7 12 12 35
12 50 0 16 5 34 10 39 6 6 15 33 20 60 12 68 30 133 46 172 8 18 14 43 14 56
0 13 7 37 15 52 8 16 15 42 15 57 0 16 5 38 12 50 6 12 15 40 19 62 12 60 30
126 45 163 8 18 14 45 14 60 1 15 7 38 15 52 8 14 15 39 15 55 0 17 7 41 15
55 8 14 15 39 15 55 0 17 7 41 15 55 8 14 15 39 15 55 0 17 7 41 15 55 8 14
14 41 15 61 0 19 5 40 12 47 6 6 14 30 18 54 5 24 12 57 18 73 6 17 15 49 20
72 17 80 282 73 -2593 73 l-2565 0 0 -2367z m3150 1297 l0 -330 -777 0 c-888
0 -847 4 -934 -82 -62 -62 -79 -119 -79 -265 0 -192 50 -280 184 -326 20 -7
254 -13 636 -17 450 -5 613 -10 635 -19 17 -7 48 -16 70 -21 22 -4 63 -17 90
-28 125 -49 152 -66 240 -156 102 -103 139 -176 191 -371 17 -63 19 -109 19
-440 -1 -347 -2 -375 -22 -447 -46 -161 -91 -254 -166 -335 -50 -55 -150 -133
-169 -133 -8 0 -19 -5 -26 -12 -26 -26 -182 -69 -313 -87 -198 -26 -985 -2
-1794 54 -116 9 -249 18 -298 21 -56 4 -87 10 -87 17 0 7 -1 149 -1 317 l-1
305 69 3 c37 2 196 -3 353 -12 603 -34 934 -46 1185 -46 l260 0 43 28 c23 16
57 49 75 73 l32 43 0 266 0 265 -655 6 c-639 7 -726 11 -840 42 -55 15 -64 18
-150 53 -60 25 -162 95 -206 141 -40 43 -122 176 -131 213 -3 14 -9 30 -13 35
-13 16 -39 130 -52 223 -15 106 -15 534 0 647 45 342 204 554 482 645 85 27
159 43 235 50 39 4 485 8 993 9 l922 1 0 -330z"/>
</g>
</svg>
